<svg viewBox="0 0 52.49 68.5" xmlns="http://www.w3.org/2000/svg"><g fill="#be9355"><path d="m38.27 32.86a2.71 2.71 0 0 1 -2.71 2.71h-18.63a2.71 2.71 0 0 1 -2.71-2.71l-1.62-30.15a2.71 2.71 0 0 1 2.71-2.71h21.88a2.71 2.71 0 0 1 2.71 2.71z"/><path d="m49.21 20.43h-4.77l-1.63 15.85a3.29 3.29 0 0 1 -3.29 3.29h-26.52a3.29 3.29 0 0 1 -3.29-3.29l-1.65-15.85h-4.77a3.29 3.29 0 0 0 -3.29 3.28l3.79 21a3.29 3.29 0 0 0 3.28 3.29h38.93a3.29 3.29 0 0 0 3.28-3.29l3.25-21a3.29 3.29 0 0 0 -3.32-3.28z"/><path d="m31.31 51.25c0 1.49-1.9 2.71-4.25 2.71h-1.62c-2.35 0-4.25-1.21-4.25-2.71v-4.4c0-1.5 1.9-2.71 4.25-2.71h1.61c2.35 0 4.25 1.21 4.25 2.71z"/><path d="m14.3 65.42a3.08 3.08 0 0 1 -3.08 3.08 3.08 3.08 0 0 1 -3.08-3.08v-3.31a3.08 3.08 0 0 1 3.08-3.11 3.08 3.08 0 0 1 3.08 3.08z"/><path d="m29.32 65.42a3.08 3.08 0 0 1 -3.08 3.08 3.08 3.08 0 0 1 -3.08-3.08v-3.31a3.08 3.08 0 0 1 3.09-3.11 3.08 3.08 0 0 1 3.08 3.08z"/><path d="m44.59 65.42a3.08 3.08 0 0 1 -3.08 3.08 3.08 3.08 0 0 1 -3.08-3.08v-3.31a3.08 3.08 0 0 1 3.09-3.11 3.08 3.08 0 0 1 3.08 3.08z"/><path d="m9.2 54.85h17.08v4.33h-17.08z" transform="matrix(.76300688 -.64639036 .64639036 .76300688 -32.65 24.98)"/><path d="m32.59 48.48h4.33v17.08h-4.33z" transform="matrix(.64639036 -.76300688 .76300688 .64639036 -31.22 46.68)"/><path d="m24.08 51.5h4.33v12.27h-4.33z"/></g></svg>