<svg viewBox="0 0 59.83 44.33" xmlns="http://www.w3.org/2000/svg"><g fill="#bd9254"><path d="m59 .87h-7.28v-.07l-3.56-.21a2.86 2.86 0 0 0 -2.36 2.41s-.14 32.88 0 34.66.45 7.42 3.59 6.23 4.18-7.11 1.88-12.75a10.89 10.89 0 0 1 .39-9.43h7.34a.79.79 0 0 0 0-1.58h-7.15v-1.66h7.15a.79.79 0 1 0 0-1.58h-7.17v-1.62h7.17a.79.79 0 0 0 0-1.58h-7.2v-1.63h7.2a.79.79 0 1 0 0-1.58h-7.22v-1.62h7.22a.79.79 0 0 0 0-1.58h-7.24v-1.63h7.24a.79.79 0 0 0 0-1.58h-7.3v-1.62h7.3a.79.79 0 1 0 0-1.58z"/><path d="m40 38c-.65-3-5.53-7.85-5.53-7.85-7.47-7.09-8.84-8.09-11.3-10.89 1.35-2.27 3.28-5.45 4.57-7.39 0 0 .51-.65 1.16.07 0 0 5.13 5.2 10-1.08 0 0 3.9-6.22-2-10.12 0 0-6.58-3.4-9.83 4.34 0 0-2.47 4.92-3.77 6.94a13.46 13.46 0 0 1 -3.18 3.82 13.48 13.48 0 0 1 -3.24-3.84c-1.3-2-3.77-6.94-3.77-6.94-3.25-7.71-9.82-4.32-9.82-4.32-5.93 3.9-2 10.12-2 10.12 4.84 6.29 10 1.08 10 1.08.65-.72 1.16-.07 1.16-.07 1.23 1.94 3.16 5.13 4.55 7.39-2.47 2.79-4.12 3.88-11.63 11.25 0 0-4.56 4.57-5.21 7.53a8.55 8.55 0 0 0 1.37 6.28l18.53-19.63 18.58 19.64a8.56 8.56 0 0 0 1.36-6.33zm-7.92-34.84a4 4 0 0 1 5.22 2.21 4 4 0 0 1 -2.49 5.1 4 4 0 0 1 -5.23-2.21 4 4 0 0 1 2.5-5.1zm-21.54 5.1a4 4 0 0 1 -5.23 2.21 4 4 0 0 1 -2.49-5.1 4 4 0 0 1 5.23-2.21 4 4 0 0 1 2.49 5.1z"/></g></svg>