<svg viewBox="0 0 68.48 57.23" xmlns="http://www.w3.org/2000/svg"><path d="m68.07 15-9.17-9.19.1-.09-4.21-4.72c-2.79-2.26-5.93 0-5.93 0s-41.37 41-43.47 43.39-8.73 9.85-3.32 12.3 14.15-3.69 18.34-13.61a19.3 19.3 0 0 1 12.3-11.33l9.29 9.25a1.4 1.4 0 0 0 2-2l-9-9 2-2 9 9a1.4 1.4 0 0 0 2-2l-9-9 2-2 9 9a1.4 1.4 0 1 0 2-2l-9.06-9 2-2.05 9.06 9.05a1.4 1.4 0 0 0 2-2l-9.09-9.09 2-2.05 9.15 9.14a1.4 1.4 0 1 0 2-2l-9.12-9.12 2-2.05 9.14 9.17a1.4 1.4 0 0 0 2-2l-9.17-9.15 2-2.05 9.18 9.2a1.4 1.4 0 0 0 2-2z" fill="#bd9254"/></svg>