<svg viewBox="0 0 96.35 65.81" xmlns="http://www.w3.org/2000/svg"><g fill="#bc9153"><path d="m96 13.81-8.49-8.45.08-.08-3.86-4.35c-2.57-2.09-5.47 0-5.47 0s-51 50.87-53 53-8 9.08-3.06 11.34 13-3.38 16.9-12.55c3.17-7.52 22.15-22.89 24.24-23.49l8.57 8.57a1.29 1.29 0 0 0 1.85-1.8l-8.31-8.31 1.87-1.89 8.32 8.32a1.29 1.29 0 0 0 1.82-1.82l-8.33-8.3 1.87-1.9 8.34 8.34a1.29 1.29 0 0 0 1.82-1.82l-8.36-8.36 1.87-1.89 8.33 8.37a1.29 1.29 0 0 0 1.82-1.82l-8.38-8.38 1.87-1.89 8.44 8.35a1.29 1.29 0 0 0 1.82-1.82l-8.41-8.41 1.84-1.85 8.42 8.42a1.29 1.29 0 1 0 1.82-1.82l-8.4-8.44 1.87-1.89 8.44 8.44a1.29 1.29 0 1 0 1.85-1.82z"/><path d="m.38 13.81 8.45-8.45-.08-.08 3.87-4.35c2.57-2.09 5.47 0 5.47 0s51 50.87 53 53 8 9.08 3.06 11.34-13-3.38-16.9-12.55c-3.2-7.48-22.18-22.85-24.25-23.45l-8.57 8.57a1.29 1.29 0 0 1 -1.84-1.84l8.31-8.31-1.9-1.87-8.32 8.32a1.29 1.29 0 1 1 -1.82-1.82l8.36-8.32-1.87-1.9-8.35 8.34a1.29 1.29 0 1 1 -1.82-1.82l8.36-8.36-1.87-1.89-8.37 8.37a1.29 1.29 0 0 1 -1.82-1.82l8.38-8.38-1.86-1.9-8.4 8.36a1.29 1.29 0 0 1 -1.82-1.82l8.41-8.41-1.87-1.89-8.42 8.45a1.29 1.29 0 0 1 -1.82-1.82l8.43-8.43-1.87-1.89-8.44 8.44a1.29 1.29 0 0 1 -1.82-1.82z"/></g></svg>