<svg viewBox="0 0 65.84 88.51" xmlns="http://www.w3.org/2000/svg"><g fill="#bf9456"><path d="m24.25 45 .1-.37.88-3.41-.89-10.22h-20.82a3.4 3.4 0 0 0 -3.52 3.24v20a3.36 3.36 0 0 0 3.14 3.22v-21.78h4.37v21.83h3.56v-21.83h4.37v21.83h3.56v-21.83h4.37v15.42a29 29 0 0 0 .89-5.75z"/><path d="m62.32 31h-20.82l-.88 10.15.88 3.46.09.36v.36a29 29 0 0 0 .89 5.76v-15.41h4.37v21.83h3.56v-21.83h4.37v21.83h3.56v-21.83h4.36v21.81a3.36 3.36 0 0 0 3.14-3.22v-20a3.4 3.4 0 0 0 -3.52-3.27z"/><path d="m55.46 76.86a10.21 10.21 0 0 0 -8.31-8.86 47.56 47.56 0 0 1 -5.79-10.52 42 42 0 0 1 -2.44-8.85 24 24 0 0 1 -.33-3.31l-1-4 .5-5.72.4-4.6 2.51-29-2-2-6 23.25-5.94-23.25-2.22 2 2.51 29 .41 4.68.5 5.77-1 3.9a24 24 0 0 1 -.32 3.3 42 42 0 0 1 -2.44 8.85 47.57 47.57 0 0 1 -5.81 10.5 10.21 10.21 0 0 0 -8.31 8.83c-.83 5.65 2.62 10.83 7.72 11.58a8.57 8.57 0 0 0 1.25.09c4.65 0 8.73-3.83 9.48-8.92a10.42 10.42 0 0 0 -4-10 26.86 26.86 0 0 1 3.12-10.18c1.29-2.15 2.24-4.18 3.34-5.87a12.22 12.22 0 0 1 1.63-2.06 12.22 12.22 0 0 1 1.63 2.06c1.1 1.69 2.05 3.72 3.34 5.87a26.85 26.85 0 0 1 3.11 10.14 9.37 9.37 0 0 0 -2.41 2.53 10.83 10.83 0 0 0 -1.59 7.52c.75 5.08 4.83 8.92 9.48 8.92a8.55 8.55 0 0 0 1.25-.09 8.84 8.84 0 0 0 6.14-4 10.82 10.82 0 0 0 1.59-7.56zm-30 2.23c-.51 3.43-3.14 6-6.12 6a5.17 5.17 0 0 1 -.75-.06c-3.23-.48-5.41-3.93-4.85-7.7.51-3.43 3.14-6 6.12-6a5.17 5.17 0 0 1 .75.06c3.23.48 5.39 3.94 4.85 7.7zm9.08-33.51a1.95 1.95 0 1 1 .32-1.08 2 2 0 0 1 -.31 1.08zm16.46 36.95a5.49 5.49 0 0 1 -3.79 2.53 5.17 5.17 0 0 1 -.75.06c-3 0-5.61-2.59-6.12-6a7.44 7.44 0 0 1 1.06-5.17 5.49 5.49 0 0 1 3.79-2.53 5.17 5.17 0 0 1 .75-.06c3 0 5.61 2.59 6.12 6a7.43 7.43 0 0 1 -1.06 5.17z"/></g></svg>