<svg viewBox="0 0 58.87 49.61" xmlns="http://www.w3.org/2000/svg"><g fill="#bd9254"><path d="m19.38.59a15.17 15.17 0 0 0 -14.19 26 21.35 21.35 0 0 1 -2.06 8.57c-2.89 5.78.15 13 1.83 14.45h11.9v-12l6-3.85.64-5.13 20.31-5.71v-15.45zm-4.21 6.88a7.71 7.71 0 1 1 -7.71 7.71 7.71 7.71 0 0 1 7.71-7.71z"/><path d="m49.65 11.63a4.93 4.93 0 0 1 -3.18-.94l1.59-1.85c.05 0 1.33.94 4.35-.19 4.62-1.73 6.32.52 6.49.78l-2 1.38v.05s-.88-1-3.66.08a10.21 10.21 0 0 1 -3.59.69z"/><path d="m49.65 17a4.93 4.93 0 0 1 -3.18-1l1.59-1.85c.05 0 1.33.94 4.35-.19 4.62-1.73 6.32.52 6.49.78l-2 1.38v.05s-.88-1-3.66.08a10.22 10.22 0 0 1 -3.59.75z"/><path d="m49.65 22.33a4.93 4.93 0 0 1 -3.18-.94l1.59-1.85c.05 0 1.33.94 4.35-.19 4.62-1.73 6.32.51 6.49.78l-2 1.38v.05s-.88-1-3.66.08a10.21 10.21 0 0 1 -3.59.69z"/></g></svg>