<svg viewBox="0 0 58.87 49.61" xmlns="http://www.w3.org/2000/svg"><g fill="#bd9254"><path d="m15.17 3a12.19 12.19 0 0 1 3.37.48l2.37.68 19.91 5.6v10.84l-18.11 5.1-1.92.54-.25 2-.47 3.73-4.83 3.03-1.38.89v10.72h-7.42c-1-1.87-2.47-6.42-.62-10.11a24.52 24.52 0 0 0 2.37-9.79l.06-1.44-1.08-.95a12.17 12.17 0 0 1 8-21.32m0 20.74a8.57 8.57 0 1 0 -8.57-8.57 8.58 8.58 0 0 0 8.57 8.57m0-23.74a15.17 15.17 0 0 0 -10 26.59 21.35 21.35 0 0 1 -2.06 8.57c-2.89 5.78.15 13 1.83 14.45h11.92v-12l6-3.85.64-5.13 20.31-5.71v-15.45l-24.43-6.88a15.17 15.17 0 0 0 -4.21-.59zm0 20.74a5.57 5.57 0 1 1 5.57-5.57 5.57 5.57 0 0 1 -5.57 5.57z"/><path d="m49.65 11.63a4.93 4.93 0 0 1 -3.18-.94l1.59-1.85c.05 0 1.33.94 4.35-.19 4.62-1.73 6.32.52 6.49.78l-2 1.38v.05s-.88-1-3.66.08a10.21 10.21 0 0 1 -3.59.69z"/><path d="m49.65 17a4.93 4.93 0 0 1 -3.18-1l1.59-1.85c.05 0 1.33.94 4.35-.19 4.62-1.73 6.32.52 6.49.78l-2 1.38v.05s-.88-1-3.66.08a10.22 10.22 0 0 1 -3.59.75z"/><path d="m49.65 22.33a4.93 4.93 0 0 1 -3.18-.94l1.59-1.85c.05 0 1.33.94 4.35-.19 4.62-1.73 6.32.51 6.49.78l-2 1.38v.05s-.88-1-3.66.08a10.21 10.21 0 0 1 -3.59.69z"/></g></svg>