<svg viewBox="0 0 67.26 67.26" xmlns="http://www.w3.org/2000/svg"><g fill="#bd9254"><path d="m49.38 31.67a18.7 18.7 0 0 0 2.62-3.26v-13.41a7.36 7.36 0 0 0 -3-1.71v18.78z"/><path d="m38.84 15.28v21.36a14.08 14.08 0 0 0 6.4-1.85v-21.79a14.94 14.94 0 0 0 -6.4 2.28z"/><path d="m62.43 4.83c-8.11-8.12-23.62-5.76-34.64 5.25s-13.37 26.53-5.25 34.64 23.62 5.76 34.64-5.26 13.37-26.52 5.25-34.63zm-33.43 33.4c-5.47-5.47-3.88-15.93 3.54-23.35s17.88-9 23.36-3.54 3.88 15.93-3.54 23.35-17.86 9.01-23.36 3.54z"/><path d="m16.07 62.25c-6.4 6.4-10.83 5.88-13.88 2.83s-3.58-7.49 2.81-13.89 14.06-9.12 17.12-6.06.35 10.71-6.05 17.12z"/><path d="m21.38 55.24s2.43-5.94 8.8-6.24l-5.94-6-7.54 7.56z"/><path d="m12 45.88s5.93-2.42 6.27-8.79l5.97 5.91-7.54 7.56z"/></g></svg>