<svg viewBox="0 0 82.6 23.54" xmlns="http://www.w3.org/2000/svg"><path d="m41.3 3.23c-1.68-2-4.88-4.46-11.49-2.53-9.17 2.68-9.86 11.08-16.57 14.74s-11.09-1.21-9.36-7.21c0 0 1.32 3.36 5.29 1.73s2-5.9.81-6.91-6.41-1.74-9.05 4.16.07 15.66 11.49 16.27c10.65.52 23.58-2.95 28.88-11.29 5.29 8.34 18.22 11.81 28.88 11.29 11.39-.61 14.13-10.37 11.49-16.27s-7.83-5.21-9.05-4.21-3.15 5.29.81 6.91 5.29-1.73 5.29-1.73c1.73 6-2.64 10.88-9.35 7.22s-7.37-12.02-16.58-14.7c-6.61-1.93-9.79.53-11.49 2.53z" fill="#bf9456"/></svg>