<svg viewBox="0 0 74.33 90.45" xmlns="http://www.w3.org/2000/svg"><g fill="#bd9254"><path d="m36.22 79.91c-5.24-2-7.66-8.47-5.39-14.44s8.38-9.19 13.62-7.19 7.66 8.47 5.39 14.44-8.38 9.19-13.62 7.19zm7.07-18.55c-3.54-1.35-7.74 1-9.37 5.29s-.06 8.83 3.48 10.18 7.74-1 9.37-5.29.06-8.83-3.49-10.18z"/><path d="m3.09 60.63c-4.18-3.74-4.09-10.63.14-15.41s11.12-5.58 15.3-1.84 4.12 10.62-.14 15.41-11.12 5.58-15.3 1.84zm13.24-14.79c-2.82-2.53-7.6-1.84-10.64 1.58s-3.22 8.22-.4 10.75 7.6 1.82 10.64-1.58 3.23-8.22.4-10.75z"/><path d="m21.84 47.55c3.85-3.1 10.5-5.77 14.75-7.12.51-3.24-1.23-5.34-1.18-6.83-.83.7-1.57 1.31-2.19 1.8-9.2 7.28-22 6.32-22 6.32l5.78 2.69 3 4.92c0-.81-4.08 2.98 1.84-1.78z"/><path d="m39.07 59.88h-.63a.51.51 0 0 0 .63 0z"/><path d="m49.62 72.63a20.18 20.18 0 0 0 -4.22 8.55c-.81 4.65 1.91 9.26 1.91 9.26l-5-1.9-4.4-9.25 4.74-1.11z"/><path d="m19.84 55.57 1.68 1.5-4.97 5.56-2.12-1.89z"/><path d="m47.43 38.19c11.8-8.76 26.9-21.19 26.9-21.19l-24.21 9.42z"/><path d="m45.37 41.75c2.24-11.52 9.63-41.75 9.63-41.75l-18.2 32.21s5.38 13.59 3 25.22c-.22 1.07-.37 1.86-.48 2.46l5.48.36 5 3.93s-6.67-10.92-4.43-22.43zm-3.75-7.87a1.88 1.88 0 1 1 2.43-1.09 1.88 1.88 0 0 1 -2.43 1.09z"/><path d="m39.28 60.17c-.42 2.34 0 .74 0 0z"/><path d="m39.07 59.88h.13a.1.1 0 0 0 -.13 0z"/><path d="m39.28 60.17.05-.28h-.13a.46.46 0 0 1 .08.28z"/></g></svg>