<svg viewBox="0 0 46.02 65.6" xmlns="http://www.w3.org/2000/svg"><g fill="#bd9254"><ellipse cx="38.61" cy="5.44" rx="7.41" ry="5.44"/><path d="m27.41 7.48c1.19-.33.9-1.2 1-2.26.14-1.38.51-1.87.14-2a7.89 7.89 0 0 0 -2.32-.48 2.36 2.36 0 0 1 -1.88-.8c-.35-.57-1.76-.82-3.14-.56s-2.17.2-2 1a10.51 10.51 0 0 1 -.45 4.21 1.66 1.66 0 0 0 -.54 1.7c.18 1 .48 2.65.9 2.61a16.08 16.08 0 0 1 4.95 0c.86.26 1.13-.92 1.14-1.57s1.01-1.51 2.2-1.85z"/><path d="m16 21.06a21.76 21.76 0 0 1 11.52 0v-7s-5.17-3.88-11.86 0v7z"/><path d="m21.62 22.36a21.62 21.62 0 1 0 21.61 21.64 21.64 21.64 0 0 0 -21.61-21.64zm15.82 26.84h-.2-31.45a16.57 16.57 0 0 1 .45-11.64h30.76a16.56 16.56 0 0 1 .45 11.66z"/></g></svg>