<svg viewBox="0 0 54.78 58.14" xmlns="http://www.w3.org/2000/svg"><g fill="#bc9153"><path d="m35.89 1.78a4.32 4.32 0 0 0 -6-1l-11.89 8.67 18.83-6.37z"/><path d="m44.16 8.42a4.3 4.3 0 0 0 -5.43-2.72l-14.63 4.93h20.81z"/><path d="m44.3 45.35a10.11 10.11 0 0 1 0-20.23h3.45a10.08 10.08 0 0 1 2.85.42v-7.54c0-.08 0-.16 0-.24a4.32 4.32 0 0 0 -4.31-4.08h-42a4.33 4.33 0 0 0 -4.19 3.42 4.36 4.36 0 0 0 -.1.9v35.82a4.32 4.32 0 0 0 4.29 4.32h42a4.32 4.32 0 0 0 4.32-4.32v-8.88a10.08 10.08 0 0 1 -2.85.41z"/><path d="m50.59 28.82a7 7 0 0 0 -2.85-.61h-3.44a7 7 0 1 0 0 14.05h3.45a7 7 0 0 0 2.85-13.45zm-4.59 9.47a3.05 3.05 0 1 1 3.05-3.05 3.05 3.05 0 0 1 -3.05 3.05z"/></g></svg>