<svg height="26" viewBox="0 0 96 26" width="96" xmlns="http://www.w3.org/2000/svg" xmlns:xlink="http://www.w3.org/1999/xlink"><mask id="a" fill="#fff"><path d="m10.9550603.26494686v14.69800244h-10.82416867v-14.69800244z" fill="none"/></mask><mask id="b" fill="#fff"><path d="m12.8410575.13467381h-12.59839474v15.01491009h12.59839474z" fill="none"/></mask><mask id="c" fill="#fff"><path d="m12.5979185.13467381h-12.59781213v15.01491009h12.59781213z" fill="none"/></mask><g fill="#ccc" fill-rule="evenodd" transform=""><path d="m52.826181 20.2705024c-4.947661 3.6399042-12.1201075 5.5751775-18.2963734 5.5751775-8.6563459 0-16.4513387-3.1897545-22.3499718-8.4992958-.4632532-.4172768-.0502611-.9864592.5066001-.6635602 6.3642797 3.6918651 14.2345312 5.9150433 22.3630024 5.9150433 5.4835136 0 11.5108578-1.1343882 17.0576632-3.4797803.8360895-.3536513 1.5373517.5495646.7190795 1.1524155"/><path d="m54.8848123 17.9272842c-.6329177-.8075127-4.1828412-.3825479-5.7779002-.1922018-.4829321.0577931-.5576589-.3631951-.1223286-.6678019 2.8321736-1.9829922 7.4724175-1.4103634 8.0114613-.7465382.5432986.6696575-.1428054 5.3076856-2.7962728 7.5210549-.4082053.3401309-.7967317.1585334-.6156321-.2908212.5972828-1.4869791 1.9343878-4.8153839 1.3006724-5.6236918"/><path d="m49.2194811 3.05908372v-1.92678982c.0018615-.29347226.2231168-.48859021.4901123-.48752979l8.6627282-.00106042c.2771009 0 .4994199.20095028.4994199.48620425v1.6524052c-.0026593.2773008-.2369452.63864017-.6520647 1.21285959l-4.4873332 6.38693187c1.6652649-.0387055 3.427329.210229 4.9410128 1.0580377.3411905.1911414.432671.4740094.4595301.7518404v2.0561615c0 .282868-.3114061.6110691-.6382363.4400758-2.6662321-1.3923363-6.2041888-1.544242-9.1528405.017497-.3013007.1595938-.6164299-.1635703-.6164299-.4472337v-1.9540957c0-.3130901.0061164-.8475436.3223093-1.3242041l5.1989666-7.43542573-4.5264251-.00053021c-.276835 0-.498888-.19644349-.5007495-.48514384"/><path d="m17.6204546 15.0934344h-2.6353841c-.2507737-.0164365-.4510203-.2041315-.4714971-.4443175l.0021275-13.48381732c0-.27014293.2273717-.48514383.5084616-.48514383l2.4542845-.00079532c.2568901.01299019.4629873.20651751.4789432.45306602v1.7600382h.0497292c.6393001-1.70224511 1.8450348-2.49703266 3.4682825-2.49703266 1.6479794 0 2.6816562.79478755 3.419351 2.49703266.6400979-1.70224511 2.0915536-2.49703266 3.6411382-2.49703266 1.107074 0 2.3125429.45386134 3.0505036 1.47557955.8363555 1.13518355.6648295 2.78043089.6648295 4.22764411l-.0026593 8.50963495c0 .2690825-.2273717.4851438-.5084616.4851438h-2.6321929c-.2646022-.0169668-.4725608-.2256051-.4725608-.4840834l-.0010638-7.14884624c0-.56679645.0494634-1.98564334-.073929-2.52460367-.1967895-.90851799-.7871581-1.1640801-1.5493186-1.1640801-.6398319 0-1.3041296.425495-1.5751141 1.10655211-.2701867.68132222-.2459869 1.81571045-.2459869 2.58213166v7.14778584c0 .2690825-.2271057.4851438-.5079297.4851438h-2.6324588c-.2646022-.0169668-.4733586-.2256051-.4733586-.4840834l-.0023934-7.14884624c0-1.50368077.245721-3.71651989-1.6235136-3.71651989-1.8944981 0-1.8205691 2.15584134-1.8205691 3.71651989l-.0007978 7.14778584c0 .2690825-.2276376.4851438-.5084616.4851438"/><path d="m66.3531209 3.1481328c-1.9431636 0-2.0660241 2.63806901-2.0660241 4.28411167 0 1.64577756-.0241998 5.16426333 2.0420903 5.16426333 2.0423562 0 2.1402191-2.83742866 2.1402191-4.56777501 0-1.13491844-.0491974-2.49729776-.393845-3.57548354-.2951843-.93661922-.8860848-1.30511645-1.7224403-1.30511645m-.0239338-2.75285987c3.9115908 0 6.0268123 3.34881798 6.0268123 7.60482842 0 4.11364855-2.3364768 7.37763265-6.0268123 7.37763265-3.8376618 0-5.9289494-3.3490831-5.9289494-7.51946431 0-4.19980799 2.1154874-7.46299676 5.9289494-7.46299676"/><path d="m3.23404975 14.9629493h-2.62581055c-.26380434-.0169668-.47282673-.2256052-.47282673-.4840834l-.00452084-13.48911946c.02233827-.24707871.24093421-.44007582.50633414-.44007582l2.44444506-.00079532c.23029694.01219487.42017224.16834226.46857182.37751083v2.06252406h.04946332c.73822666-1.8448721 1.77083982-2.72396333 3.59140889-2.72396333 1.18073718 0 2.33727455.42522989 3.07523524 1.58930999.6887634 1.07792067.6887634 2.89363112.6887634 4.19927777v8.48498008c-.0292525.2388604-.2446573.4244346-.5050045.4244346h-2.64176644c-.24412539-.0156413-.44091491-.1943227-.46910369-.4244346v-7.32116509c0-1.47557955.17232381-3.63248131-1.64824526-3.63248131-.6398319 0-1.23020049.425495-1.52538478 1.07792067-.36911333.82341899-.41857665 1.64551244-.41857665 2.55456064v7.26045589c-.00452084.2690825-.23215845.4851438-.51298243.4851438" mask="url(#a)" transform="translate(74.194971 .130485)"/><path d="m10.6653276 14.9292808c-.1739194.1561474-.4257568.1664866-.6222804.0609744-.87518152-.7250647-1.03208128-1.0598935-1.51075851-1.7504944-1.44640304 1.4689519-2.47077231 1.9098231-4.34505961 1.9098231-2.21840303 0-3.94456632-1.3652955-3.94456632-4.0948261 0-2.13277712 1.15893077-3.58317161 2.81063315-4.29392058 1.42964933-.62591508 3.42679711-.73964552 4.95590494-.91063884v-.34092621c0-.62618018.04893145-1.36476528-.32097968-1.90531625-.32071375-.4835532-.93687772-.68264774-1.47911265-.68264774-1.00548811 0-1.89848708.51351016-2.11841268 1.57738022-.04574027.2370047-.21886187.47162343-.45766862.4835532l-2.55454082-.27597526c-.21593662-.04851439-.45527524-.22109834-.39331313-.54956457.58770927-3.08901419 3.38584362-4.02218703 5.89331452-4.02218703 1.28258905 0 2.95875715.34092622 3.96956391 1.30829772 1.2823231 1.19430217 1.1586648 2.78705854 1.1586648 4.52217679v4.09217495c0 1.2319472.5132484 1.7717029.9945849 2.4347328.1686008.2396558.2063631.5233191-.0085098.6985541-.53798.4498847-1.4945367 1.2778105-2.0208157 1.7449272zm-2.65612675-6.40575432c0 1.02410417.02419979 1.87668482-.49383535 2.78732362-.41884257.7388502-1.08473579 1.1940371-1.82402618 1.1940371-1.01080676 0-1.602505-.7680119-1.602505-1.9055814 0-2.23749393 2.01336962-2.64443152 3.92036653-2.64443152z" mask="url(#b)" transform="translate(34.305202 .130485)"/><path d="m10.4227712 14.9292808c-.1741853.1561474-.42628864.1664866-.6225463.0609744-.87597934-.7250647-1.03261317-1.0598935-1.5104926-1.7504944-1.44720083 1.4689519-2.47157011 1.9098231-4.34505961 1.9098231-2.2189349 0-3.94456632-1.3652955-3.94456632-4.0948261 0-2.13277712 1.1583989-3.58317161 2.81036722-4.29392058 1.42964933-.62591508 3.42706304-.73964552 4.95510714-.91063884v-.34092621c0-.62618018.04946331-1.36476528-.32018188-1.90531625-.32071375-.4835532-.93714365-.68264774-1.47911265-.68264774-1.00522218 0-1.89928488.51351016-2.11841268 1.57738022-.04574027.2370047-.21886187.47162343-.45793455.4835532l-2.55400896-.27597526c-.21593662-.04851439-.4558071-.22109834-.39357906-.54956457.58691147-3.08901419 3.38504582-4.02218703 5.89358045-4.02218703 1.28205718 0 2.95849122.34092622 3.969298 1.30829772 1.2815253 1.19430217 1.1586648 2.78705854 1.1586648 4.52217679v4.09217495c0 1.2319472.5129824 1.7717029.994319 2.4347328.1680689.2396558.206629.5233191-.0082439.6985541-.5382459.4498847-1.4953345 1.2778105-2.0210816 1.7449272zm-2.65719047-6.40575432c0 1.02410417.02473166 1.87668482-.49303755 2.78732362-.41857665.7388502-1.08473579 1.1940371-1.82429212 1.1940371-1.01054082 0-1.60250499-.7680119-1.60250499-1.9055814 0-2.23749393 2.01390148-2.64443152 3.91983466-2.64443152z" mask="url(#c)" transform="translate(0 .130485)"/></g></svg>