<svg height="30" viewBox="0 0 89 30" width="89" xmlns="http://www.w3.org/2000/svg" xmlns:xlink="http://www.w3.org/1999/xlink"><mask id="a" fill="#fff"><path d="m45.7217849 29.9462011h-45.7217849v-29.9462011h91.4435698v29.9462011z" fill="none"/></mask><g fill="#bbb" fill-rule="evenodd" transform="translate(-.006935)"><path d="m2.88226257 3.41857542h3.41865922v-3.41857542h-3.41865922zm0 3.45125698h3.41874302v18.3167598c0 2.848743-2.07821229 4.7596089-4.96047486 4.7596089h-1.34053073v-3.2178771h.97248603c1.17318436 0 1.90977654-.5371508 1.90977654-1.8092179z" mask="url(#a)"/><path d="m22.5153603 16.6573911v-2.8152235c0-4.39198324-3.250391-7.17268157-7.0044972-7.17268157-3.2839106 0-7.00399438 2.1451676-7.00399438 8.74759777 0 6.9693855 4.05511168 8.6463687 7.54072628 8.6463687 2.2789106 0 4.4576815-.8046369 6.1331564-2.7481005l-2.4801117-2.1111453c-1.0055866 1.0389386-2.4130727 1.6414525-3.7205866 1.6414525-2.345028 0-4.0545252-1.406648-4.0545252-4.1882681zm-10.5898324-2.8152235c.0670391-2.5809218 1.5747486-3.95547486 3.5853352-3.95547486 2.0110056 0 3.4862011 1.37455306 3.5872626 3.95547486z" mask="url(#a)"/><path d="m25.2245698 1.70901955h3.4185755v5.16083799h2.4801955v2.61385475h-2.4801955v9.88726261c0 .9393016.3685474 1.272905 1.2067877 1.272905h1.2734078v3.2177095h-1.7767039c-2.3790503 0-4.1220671-1.5081285-4.1220671-4.1886872v-10.18918991h-1.7086592v-2.61385475h1.7086592z" mask="url(#a)"/><path d="m42.1502514 3.21831285c2.612933 0 3.8542458 1.57432961 3.8542458 3.41656424 0 1.87835196-1.2413128 3.41865921-3.8542458 3.41865921h-5.2292179v-6.83522345zm-8.8481564 20.64326815h10.0544413c3.5849162 0 6.6354469-2.6469553 6.6354469-6.7690223 0-2.4131565-1.2744134-4.8938548-3.8873463-5.496704v-.0666201c2.7812011-1.2403072 3.5193016-3.15025136 3.5193016-5.12773739 0-3.75402235-2.4140782-6.40156425-7.0724581-6.40156425h-9.2493854zm9.1827653-10.5902514c2.6808939 0 3.8872626 1.709581 3.8872626 3.5868436 0 1.8763408-1.2063687 3.5863408-3.8872626 3.5863408h-5.5638268v-7.1731844z" mask="url(#a)"/><path d="m51.9568324-.00003352h3.4190782v19.47159222c0 .7716201.4360894 1.1723463 1.2734078 1.1723463h1.1731844v3.2177095h-1.5077933c-2.4801117 0-4.3578771-1.0720391-4.3578771-4.121648z" mask="url(#a)"/><path d="m59.2632318 6.86981564h3.4185755v10.12206706c0 2.3120112 1.4405866 3.6519553 3.3855586 3.6519553 1.9093576 0 3.3504469-1.3399441 3.3504469-3.6519553v-10.12206706h3.4196649v16.99181566h-3.4196649v-1.8087151h-.0661173c-1.0730447 1.3400279-2.6148603 2.0105028-4.3905586 2.0105028-2.6808939 0-5.6979051-2.0446089-5.6979051-5.8988548z" mask="url(#a)"/><path d="m88.6823045 16.6573911v-2.8152235c0-4.39198324-3.2503073-7.17268157-7.0039944-7.17268157-3.2848324 0-7.0048324 2.1451676-7.0048324 8.74759777 0 6.9693855 4.0549441 8.6463687 7.5401396 8.6463687 2.2799162 0 4.4581844-.8046369 6.1342458-2.7481005l-2.4806983-2.1111453c-1.0050838 1.0389386-2.4131564 1.6414525-3.7201676 1.6414525-2.3450279 0-4.0549441-1.406648-4.0549441-4.1882681zm-10.5902514-2.8152235c.0674581-2.5809218 1.5748324-3.95547486 3.586257-3.95547486 2.0105865 0 3.4856983 1.37455306 3.5869273 3.95547486z" mask="url(#a)"/></g></svg>