<svg height="30" viewBox="0 0 119 30" width="119" xmlns="http://www.w3.org/2000/svg" xmlns:xlink="http://www.w3.org/1999/xlink"><mask id="a" fill="#fff"><path d="m15.0555417 0h14.9994583v30h-14.9994583-14.99945837v-30z" fill="none"/></mask><g fill="none" fill-rule="evenodd" transform=""><path d="m0 4.437v21.1258333h13.195v-4.27h-8.56833333v-16.8558333z" fill="#bbb"/><g transform="translate(14.880952)"><g fill="#bbb"><path d="m2.58246429 4.1235c1.42416666 0 2.58 1.15583333 2.58 2.58083333 0 1.42416667-1.15583334 2.57666667-2.58 2.57666667-1.42333334 0-2.57916667-1.1525-2.57916667-2.57666667 0-1.425 1.15583333-2.58083333 2.57916667-2.58083333zm-2.22416667 21.4333333h4.4475v-14.3166666h-4.4475z"/><path d="m23.399881 4.43683333h4.445v12.62499997l5.0383333-5.8283333h5.45l-5.8325 6.6283333 5.7108333 7.7016667h-5.5883333l-4.7208333-7.0783333h-.0575v7.0783333h-4.445z"/><path d="m7.26629762 11.2435h4.26916668v1.9558333h.06c.5925-1.1258333 2.045-2.3125 4.21-2.3125 4.5075 0 5.3375 2.9658334 5.3375 6.82v7.85h-4.4483333v-6.9608333c0-1.66-.03-3.7941667-2.3133334-3.7941667-2.3125 0-2.6675 1.8075-2.6675 3.6758334v7.0791666h-4.44749998z"/><path d="m51.4617976 23.0778333c-1.4258333 1.81-3.7666666 2.8483334-6.0791666 2.8483334-4.4475 0-8.0058334-2.9658334-8.0058334-7.5625 0-4.595 3.5583334-7.5608334 8.0058334-7.5608334 4.1533333 0 6.7591666 2.9658334 6.7591666 7.5608334v1.3933333h-10.3175c.3533334 1.6908333 1.6316667 2.7875 3.35 2.7875 1.4541667 0 2.4308334-.74 3.1725-1.7483333zm-3.7666666-6.3425c.0283333-1.4841666-1.1266667-2.7283333-2.73-2.7283333-1.955 0-3.0216667 1.3341667-3.1408334 2.7283333z"/><path d="m69.061131 25.555h-4.0941667v-1.8991667h-.0575c-.6858333 1.0391667-2.4033333 2.2541667-4.4191667 2.2541667-4.2716666 0-7.0883333-3.0825-7.0883333-7.4408333 0-4.005 2.4916667-7.68 6.5833333-7.68 1.84 0 3.5583334.5025 4.5675 1.8958333h.0575v-8.24833333h4.4508334zm-7.6533334-10.8525c-2.2225 0-3.5583333 1.4833333-3.5583333 3.6466667 0 2.1658333 1.3358333 3.6475 3.5583333 3.6475 2.2258334 0 3.5591667-1.4816667 3.5591667-3.6475 0-2.1633334-1.3333333-3.6466667-3.5591667-3.6466667z"/><path d="m27.8360833 0h-25.56749997c-1.22 0-2.2125.96833333-2.2125 2.16333333v25.67166667c0 1.195.9925 2.165 2.2125 2.165h25.56749997c1.2241667 0 2.2191667-.97 2.2191667-2.165v-25.67166667c0-1.195-.995-2.16333333-2.2191667-2.16333333" mask="url(#a)" transform="translate(73.452381)"/></g><path d="m80.1817143 4.13008333c1.4233333 0 2.5791667 1.15583334 2.5791667 2.58 0 1.425-1.1558334 2.58083334-2.5791667 2.58083334-1.4291667 0-2.5816667-1.15583334-2.5816667-2.58083334 0-1.42416666 1.1525-2.58 2.5816667-2.58zm-2.2275 21.43333337h4.4533333v-14.3166667h-4.4533333z" fill="#fefefe"/><path d="m85.1987976 11.24675h4.265v1.9575h.0608334c.5933333-1.1258333 2.0458333-2.3125 4.2108333-2.3125 4.5041667 0 5.3366667 2.9641667 5.3366667 6.82v7.8516667h-4.4475v-6.9625c0-1.66-.03-3.7958334-2.3133334-3.7958334-2.315 0-2.6683333 1.8091667-2.6683333 3.6775v7.0808334h-4.4441667z" fill="#fefefe"/></g></g></svg>