<svg height="42" viewBox="0 0 140 42" width="140" xmlns="http://www.w3.org/2000/svg" xmlns:xlink="http://www.w3.org/1999/xlink"><mask id="a" fill="#fff"><path d="m0 41.2075472h139.272v-40.91750946h-139.272z" fill="none"/></mask><g fill="#bbb" fill-rule="evenodd" transform="translate(.502229)"><path d="m0 41.7102h28.5568302v-40.91750943h-28.5568302zm4.116-4.1199623h20.310566v-32.67758487h-20.310566z"/><g transform="translate(0 .502653)"><path d="m47.5259321 18.6478415h-1.7671698c-2.3195095-3.2775849-4.6215849-6.534566-6.9196981-10.21550942h-.0166416v10.21550942h-1.9533962v-14.24354716h1.7687547c2.3195095 3.25539623 4.6176227 6.48939626 6.8951321 10.15052826h.0412076v-10.15052826h1.9518113z"/><path d="m53.100917 4.40453208-4.9211321 14.24354712h2.1158491l1.2378113-3.8877735h4.2966792l1.118151 3.8877735h2.7276226l-4.5391698-14.24354712zm-.9335095 8.60603772c.5673963-1.872566 1.1371699-3.6016981 1.646717-5.80075471h.0412076c.5681887 2.19905661 1.0785283 3.92818871 1.6070943 5.80075471z"/><path d="m61.9734566 18.6478415v-12.33373584h-3.7459245v-1.90981132h9.9294339v1.90981132h-3.7427547v12.33373584z"/><path d="m68.9489434 18.648h2.4249057v-14.24354717h-2.4249057z" mask="url(#a)"/><path d="m78.9016755 18.8888264c3.7221509 0 6.0408679-3.3148302 6.0408679-7.5695094 0-3.98683021-2.5596226-7.16060379-6.0408679-7.16060379-3.4780755 0-6.0487925 3.17377358-6.0487925 7.16060379 0 4.2546792 2.3234717 7.5695094 6.0487925 7.5695094m0-2.0342264c-2.546151 0-3.4408302-2.8076604-3.4408302-5.535283 0-2.62381134 1.016717-5.12637738 3.4408302-5.12637738 2.4209434 0 3.4344905 2.50256604 3.4344905 5.12637738 0 2.7276226-.8930943 5.535283-3.4344905 5.535283" mask="url(#a)"/><path d="m97.0894189 18.6478415h-1.7687547c-2.3218868-3.2775849-4.621585-6.534566-6.9189057-10.21550942h-.0198113v10.21550942h-1.9502264v-14.24354716h1.7671698c2.3187169 3.25539623 4.6184151 6.48939626 6.8927547 10.15052826h.0427924v-10.15052826h1.9549812z" mask="url(#a)"/><path d="m102.665989 4.40453208-4.9235098 14.24354712h2.117434l1.2378118-3.8877735h4.293509l1.121321 3.8877735h2.725245l-4.538377-14.24354712zm-.938264 8.60603772c.571358-1.872566 1.137962-3.6016981 1.649886-5.80075471h.040415c.569774 2.19905661 1.077736 3.92818871 1.60551 5.80075471z" mask="url(#a)"/><path d="m109.946649 4.40453208h2.425698v12.32977362h4.819698v1.9137735h-7.245396z" mask="url(#a)"/><path d="m46.0253434 30.5612604v5.8792075c-1.3035849.5095472-2.6673962.8748679-4.0470566.8748679-4.1920755 0-6.837283-3.2569811-6.837283-7.4482641 0-3.8877736 2.6452075-7.2842264 6.9173207-7.2842264 1.319434 0 2.6436227.4913207 3.4574717 1.0991321l-.7940377 1.6887169c-.6498113-.4033585-1.6689057-.7496603-2.604-.7496603-2.6016227 0-4.3743396 2.0548302-4.3743396 5.2912075 0 3.3742642 2.0366037 5.367283 4.131849 5.367283.6482264 0 1.2005661-.0768679 1.7116981-.3439245v-4.3743396z" mask="url(#a)"/><path d="m54.7573811 24.7440226h-4.074v3.9044151h3.9884151v1.9129812h-3.9884151v4.5954339h4.8022642v1.9153585h-7.2453962v-14.2443396h6.517132z" mask="url(#a)"/><path d="m62.2849698 37.3149396c3.7213585 0 6.039283-3.3164151 6.039283-7.5695094 0-3.9868302-2.562-7.1629811-6.039283-7.1629811-3.4836226 0-6.0448302 3.1761509-6.0448302 7.1629811 0 4.2530943 2.3155472 7.5695094 6.0448302 7.5695094m0-2.0350188c-2.5461509 0-3.4424151-2.8052831-3.4424151-5.5344906 0-2.621434 1.0175095-5.1247925 3.4424151-5.1247925 2.4193585 0 3.4344906 2.5033585 3.4344906 5.1247925 0 2.7292075-.8962642 5.5344906-3.4344906 5.5344906" mask="url(#a)"/><path d="m80.0424113 30.5612604v5.8792075c-1.3043773.5095472-2.6634339.8748679-4.0486415.8748679-4.1896981 0-6.8364906-3.2569811-6.8364906-7.4482641 0-3.8877736 2.6467925-7.2842264 6.9196982-7.2842264 1.3233962 0 2.6436226.4913207 3.4558868 1.0991321l-.7948302 1.6887169c-.6506038-.4033585-1.6609812-.7496603-2.5992453-.7496603-2.6079623 0-4.3783019 2.0548302-4.3783019 5.2912075 0 3.3742642 2.0366038 5.367283 4.1326415 5.367283.6529811 0 1.1989811-.0768679 1.7101132-.3439245v-4.3743396z" mask="url(#a)"/><path d="m90.9107434 37.0719736-2.8742264-5.8982264c1.5666792-.8320755 2.4669056-2.5255472 2.4669056-4.234868 0-2.7696226-1.6910943-4.1112452-4.4203018-4.1112452h-3.8029812v14.2443396h2.4470944v-5.3712453h1.0975471l2.2957359 5.3712453zm-6.1835094-12.3281887h1.0761509c1.4406793 0 2.2561132.8304906 2.2561132 2.2981132 0 1.9106038-1.1577736 2.7640755-2.3179245 2.8250944-.2448679.024566-.8162264.0451698-1.0143396.0626037z" mask="url(#a)"/><path d="m95.8728453 22.8279509-4.9250944 14.2443397h2.1158491l1.242566-3.8885661h4.2950944l1.1133962 3.8885661h2.7315854l-4.5399628-14.2443397zm-.9350944 8.6076227c.5681887-1.8749434 1.1363774-3.6024906 1.6483019-5.7999623h.0404151c.5697736 2.1974717 1.0777359 3.9250189 1.6070944 5.7999623z" mask="url(#a)"/><path d="m106.679287 29.8671509c-.253585.0229812-.851095.042-1.019887.0586416v-5.1818491h1.095962c1.424038 0 2.241057.8304906 2.241057 2.2973208 0 1.9113962-1.156189 2.7648679-2.317132 2.8258867m.342339-7.0393584h-3.804566v14.2443396h2.44234v-5.3720378h1.095962c2.911472 0 4.683396-2.3607169 4.683396-4.7610566 0-2.7704151-1.690301-4.1112452-4.417132-4.1112452" mask="url(#a)"/><path d="m122.749675 37.0719736h-2.440754v-6.8539245h-5.070906v6.8539245h-2.413811v-14.2443396h2.413811v5.4742641h5.070906v-5.433849h2.440754z" mask="url(#a)"/><path d="m125.087094 37.0725283h2.427283v-14.2443396h-2.427283z" mask="url(#a)"/><path d="m138.496585 25.4142c-.59117-.3676981-1.56351-.7932453-2.504151-.7932453-2.485925 0-4.29034 2.0548302-4.29034 5.2912076 0 3.3750566 1.991434 5.367283 4.353736 5.367283.936679 0 1.80917-.3058868 2.440755-.7132076l.673585 1.7719246c-.736981.5079622-2.035812.9770943-3.213396.9770943-4.192868 0-6.839661-3.2569811-6.839661-7.4482641 0-3.8877736 2.623812-7.2842265 6.875321-7.2842265 1.264755 0 2.440755.5325283 3.279962 1.0991321z" mask="url(#a)"/></g></g></svg>