<svg enable-background="new 0 0 60 60" viewBox="0 0 60 60" xmlns="http://www.w3.org/2000/svg"><path d="m42.536 4h-6.536v-4h-12v4h-6.536c-1.91 0-3.464 1.554-3.464 3.464v49.072c0 1.91 1.554 3.464 3.464 3.464h25.071c1.911 0 3.465-1.554 3.465-3.464v-49.072c0-1.91-1.554-3.464-3.464-3.464zm-16.536-2h8v2h-8zm18 54.536c0 .808-.657 1.464-1.464 1.464h-25.072c-.807 0-1.464-.656-1.464-1.464v-49.072c0-.808.657-1.464 1.464-1.464h6.536 12 6.536c.807 0 1.464.656 1.464 1.464z"/><path d="m34 17.108c.021-.423-.212-.822-.605-1.007l-.78-.319-.494.61-10.917 17.608h5.796l.002 12.884c-.022.412.201.813.58 1.003l.795.351.506-.636 9.77-18.602h-4.653zm1.347 13.892-6.345 12.105-.002-11.105h-4.204l7.204-11.628v10.628z"/></svg>