<svg enable-background="new 0 0 512 512" viewBox="0 0 512 512" xmlns="http://www.w3.org/2000/svg"><path d="m512 104.299v-33.972c0-5.523-4.477-10-10-10h-39.667v-7.375c0-5.523-4.477-10-10-10h-29.213v-4.797c0-5.523-4.477-10-10-10h-68.476c-26.86 0-50.338 16.556-59.586 41.124h-8.185c-15.651 0-28.662 11.51-31.018 26.51h-38.5c-5.523 0-10 4.477-10 10v14.177h-138.044c-12.995 0-27.849 8.624-39.735 23.068-12.624 15.34-19.576 34.248-19.576 53.243v.212c0 42.078 34.233 76.311 76.311 76.311h130.198c5.523 0 10-4.477 10-10s-4.477-10-10-10h-130.198c-31.05 0-56.311-25.261-56.311-56.311v-.212c0-31.966 26.2-56.311 39.311-56.311h138.044v14.177c0 5.523 4.477 10 10 10h38.537c2.444 14.897 15.403 26.301 30.981 26.301h8.105c9.187 24.693 32.695 41.334 59.665 41.334h68.476c5.523 0 10-4.477 10-10v-4.798h29.213c5.523 0 10-4.477 10-10v-7.375h39.668c5.523 0 10-4.477 10-10v-33.972c0-5.523-4.477-10-10-10h-39.667v-31.334h39.667c5.523 0 10-4.477 10-10zm-266.528 39.844h-28.117v-28.354h28.117zm99.172 67.635c-20.368 0-37.857-13.83-42.531-33.631-1.065-4.514-5.094-7.703-9.733-7.703h-15.508c-6.287 0-11.401-5.115-11.401-11.401v-58.363c0-6.287 5.115-11.401 11.401-11.401h15.556c4.623 0 8.644-3.169 9.723-7.664 4.733-19.701 22.207-33.46 42.492-33.46h58.476v4.797 154.028 4.798zm97.689-14.798h-19.213v-134.028h19.213zm49.667-31.347v13.972h-29.667v-13.972zm0-71.334h-29.667v-13.972h29.667z"/><path d="m415.739 252.8h-129.73c-5.523 0-10 4.477-10 10s4.477 10 10 10h129.73c31.05 0 56.311 25.261 56.311 56.311s-25.261 56.311-56.311 56.311h-103.163v-6.677c0-5.523-4.477-10-10-10h-35.188v-5.26c0-29.936-24.354-54.29-54.29-54.29h-110.856c-5.523 0-10 4.477-10 10v8.507h-71.733c-9.925 0-18 8.075-18 18v101.637c0 9.925 8.075 18 18 18h71.733v8.507c0 5.523 4.477 10 10 10h110.857c29.936 0 54.29-24.354 54.29-54.29v-7.456h35.188c5.523 0 10-4.477 10-10v-6.678h103.163c42.078 0 76.311-34.233 76.311-76.311-.001-42.078-34.234-76.311-76.312-76.311zm-323.497 192.539h-69.733v-97.637h69.733zm120.857 18.507h-100.857v-134.652h100.857c13.741 0 25.613 8.128 31.079 19.826h-67.6c-5.523 0-10 4.477-10 10s4.477 10 10 10h70.81v60.536h.001c0 18.907-15.382 34.29-34.29 34.29zm79.477-61.746h-25.188v-13.355h25.188z"/><path d="m147.77 357.069c-.13-.64-.32-1.27-.57-1.87-.25-.61-.56-1.19-.92-1.73-.36-.55-.78-1.06-1.24-1.52s-.97-.88-1.52-1.24c-.54-.36-1.12-.67-1.73-.92-.6-.25-1.23-.44-1.87-.57-3.25-.66-6.7.41-9.02 2.73-.46.46-.88.97-1.25 1.52-.36.54-.67 1.12-.92 1.73-.25.6-.44 1.23-.57 1.87s-.19 1.3-.19 1.95.06 1.31.19 1.95.32 1.27.57 1.88c.25.6.56 1.18.92 1.72.37.55.79 1.06 1.25 1.52 1.86 1.86 4.43 2.93 7.07 2.93.65 0 1.31-.07 1.95-.2.64-.12 1.27-.32 1.87-.57.61-.25 1.19-.56 1.73-.92.55-.36 1.06-.78 1.52-1.24s.88-.97 1.24-1.52c.36-.54.67-1.12.92-1.72.25-.61.44-1.24.57-1.88s.2-1.3.2-1.95c0-.649-.07-1.309-.2-1.95z"/><path d="m74.242 404.52h-24.242c-5.523 0-10 4.477-10 10s4.477 10 10 10h24.242c5.523 0 10-4.477 10-10s-4.477-10-10-10z"/><path d="m74.242 368.52h-24.242c-5.523 0-10 4.477-10 10s4.477 10 10 10h24.242c5.523 0 10-4.477 10-10s-4.477-10-10-10z"/><path d="m256.31 260.85c-.12-.64-.32-1.27-.57-1.87-.25-.61-.56-1.19-.92-1.73-.36-.55-.78-1.06-1.24-1.52s-.97-.88-1.52-1.24c-.54-.36-1.12-.67-1.73-.92-.6-.25-1.23-.45-1.87-.57-1.29-.26-2.61-.26-3.91 0-.63.12-1.26.32-1.87.57-.6.25-1.18.56-1.72.92-.55.36-1.06.78-1.52 1.24s-.88.97-1.25 1.52c-.36.54-.67 1.12-.92 1.73-.25.6-.44 1.23-.57 1.87s-.19 1.3-.19 1.95.06 1.31.19 1.95.32 1.27.57 1.87c.25.61.56 1.19.92 1.73.37.55.79 1.06 1.25 1.52.46.461.97.88 1.52 1.24.54.36 1.12.67 1.72.92.61.25 1.24.45 1.87.57.65.13 1.31.2 1.96.2s1.31-.07 1.95-.2c.64-.12 1.27-.32 1.87-.57.61-.25 1.19-.56 1.73-.92.55-.36 1.059-.78 1.52-1.24.46-.46.88-.97 1.24-1.52.36-.54.67-1.12.92-1.73.25-.6.45-1.23.57-1.87.13-.64.2-1.3.2-1.95s-.07-1.31-.2-1.95z"/></svg>