<svg enable-background="new 0 0 412.779 412.779" viewBox="0 0 412.779 412.779" xmlns="http://www.w3.org/2000/svg"><path d="m412.779 227.505c0-113.8-92.583-206.384-206.384-206.384-113.806.001-206.395 92.584-206.395 206.384 0 19.644 2.759 39.043 8.189 57.708-11.054 27.966-5.303 61.09 17.278 83.671 14.686 14.686 34.214 22.774 54.988 22.774 19.295 0 37.509-6.987 51.773-19.749 1.801.463 3.665.727 5.573.727 5.94 0 11.526-2.313 15.728-6.515l11.651-11.651c8.672-8.672 8.672-22.782 0-31.455l-93.844-93.845c-4.201-4.201-9.786-6.514-15.728-6.514s-11.526 2.313-15.728 6.515l-11.65 11.651c-4.202 4.201-6.516 9.787-6.516 15.728 0 1.908.264 3.772.727 5.573-1.228 1.374-2.384 2.789-3.497 4.227-2.62-12.714-3.944-25.719-3.944-38.845 0-60.124 27.878-113.85 71.378-148.962l2.675 4.181c4.724 7.368 12.819 11.423 21.053 11.422 4.418 0 8.876-1.168 12.872-3.618 25.089-15.337 53.934-23.443 83.418-23.443 29.477 0 58.317 8.106 83.409 23.445 11.472 7.004 26.689 3.498 33.927-7.813l2.671-4.177c43.499 35.112 71.376 88.84 71.376 148.964 0 13.12-1.323 26.12-3.941 38.829-1.115-1.436-2.274-2.845-3.497-4.211.463-1.801.727-3.665.727-5.574 0-5.941-2.313-11.527-6.515-15.728l-11.651-11.652c-8.671-8.67-22.781-8.672-31.456 0l-93.845 93.845c-8.672 8.673-8.672 22.783 0 31.455l11.651 11.651c4.201 4.201 9.787 6.515 15.728 6.515 1.909 0 3.773-.264 5.573-.727 14.264 12.761 32.478 19.749 51.773 19.749 20.774 0 40.303-8.088 54.988-22.774 14.688-14.689 22.777-34.218 22.776-54.991 0-10.006-1.896-19.716-5.483-28.742 5.42-18.644 8.172-38.022 8.172-57.644zm-376.704 130.772c-22.677-22.676-24.324-58.52-4.976-83.13l88.109 88.109c-11.01 8.679-24.514 13.402-38.752 13.402-16.768 0-32.528-6.528-44.381-18.381zm2.762-106.849 11.651-11.651c1.367-1.368 3.186-2.121 5.12-2.121s3.754.753 5.121 2.121l93.845 93.845c2.824 2.824 2.824 7.418 0 10.242l-11.651 11.651c-1.367 1.368-3.187 2.121-5.12 2.121-1.935 0-3.754-.753-5.121-2.121l-93.846-93.845c-1.368-1.368-2.121-3.187-2.121-5.121s.753-3.753 2.122-5.121zm272.258-176.793c-2.871 4.49-8.916 5.877-13.469 3.097-27.445-16.777-58.992-25.646-91.23-25.646-32.246 0-63.797 8.868-91.25 25.65-4.541 2.783-10.583 1.388-13.461-3.102l-3.247-5.075c30.752-21.083 67.937-33.438 107.958-33.438 40.016 0 77.197 12.354 107.947 33.436zm-41.235 280.88-11.651-11.651c-2.824-2.824-2.824-7.418 0-10.242l93.844-93.844c1.412-1.412 3.268-2.118 5.122-2.118s3.71.706 5.121 2.118l11.651 11.652c1.368 1.368 2.121 3.186 2.121 5.121 0 1.934-.753 3.753-2.122 5.121l-93.845 93.845c-1.367 1.368-3.187 2.121-5.121 2.121-1.933-.002-3.752-.755-5.12-2.123zm106.848 2.762c-11.853 11.853-27.613 18.38-44.381 18.38-14.239 0-27.742-4.723-38.752-13.402l88.112-88.113c8.68 11.011 13.404 24.514 13.405 38.75.001 16.767-6.528 32.53-18.384 44.385z"/></svg>