<svg enable-background="new 0 0 58 58" viewBox="0 0 58 58" xmlns="http://www.w3.org/2000/svg"><path d="m44 28c-.552 0-1 .447-1 1v6c0 7.72-6.28 14-14 14s-14-6.28-14-14v-6c0-.553-.448-1-1-1s-1 .447-1 1v6c0 8.485 6.644 15.429 15 15.949v5.051h-5c-.552 0-1 .447-1 1s.448 1 1 1h12c.552 0 1-.447 1-1s-.448-1-1-1h-5v-5.051c8.356-.52 15-7.465 15-15.949v-6c0-.553-.448-1-1-1z"/><path d="m29 46c6.065 0 11-4.935 11-11v-24c0-6.065-4.935-11-11-11s-11 4.935-11 11v24c0 6.065 4.935 11 11 11zm-6.531-41.174c.156.101.331.174.531.174.552 0 1-.448 1-1 0-.148-.036-.286-.094-.412 1.45-.999 3.204-1.588 5.094-1.588s3.644.589 5.094 1.588c-.058.126-.094.264-.094.412 0 .552.448 1 1 1 .2 0 .375-.073.531-.174.59.623 1.09 1.329 1.484 2.1-.002.026-.015.048-.015.074 0 .319.159.591.392.774.387 1.003.608 2.088.608 3.226v1c-.552 0-1 .448-1 1s.448 1 1 1v4c-.552 0-1 .448-1 1s.448 1 1 1v4c-.552 0-1 .448-1 1s.448 1 1 1v4c-.552 0-1 .448-1 1s.448 1 1 1v3c0 .343-.023.679-.061 1.012-.522.033-.939.457-.939.988 0 .377.217.693.525.864-.766 2.272-2.413 4.137-4.536 5.192.001-.02.011-.036.011-.056 0-.552-.448-1-1-1s-1 .448-1 1c0 .271.11.515.285.695-.731.192-1.494.305-2.285.305s-1.554-.113-2.285-.305c.175-.18.285-.424.285-.695 0-.552-.448-1-1-1s-1 .448-1 1c0 .02.01.036.011.056-2.123-1.056-3.771-2.92-4.536-5.192.308-.171.525-.487.525-.864 0-.531-.417-.955-.939-.988-.038-.333-.061-.669-.061-1.012v-3c.552 0 1-.448 1-1s-.448-1-1-1v-4c.552 0 1-.448 1-1s-.448-1-1-1v-4c.552 0 1-.448 1-1s-.448-1-1-1v-4c.552 0 1-.448 1-1s-.448-1-1-1v-1c0-1.138.221-2.223.608-3.226.233-.183.392-.455.392-.774 0-.026-.013-.048-.015-.074.394-.771.894-1.477 1.484-2.1z"/><circle cx="29" cy="4" r="1"/><circle cx="26" cy="7" r="1"/><circle cx="26" cy="13" r="1"/><circle cx="23" cy="10" r="1"/><circle cx="29" cy="10" r="1"/><circle cx="23" cy="16" r="1"/><circle cx="29" cy="16" r="1"/><circle cx="32" cy="7" r="1"/><circle cx="32" cy="13" r="1"/><circle cx="35" cy="10" r="1"/><circle cx="35" cy="16" r="1"/><circle cx="26" cy="19" r="1"/><circle cx="26" cy="25" r="1"/><circle cx="23" cy="22" r="1"/><circle cx="29" cy="22" r="1"/><circle cx="23" cy="28" r="1"/><circle cx="29" cy="28" r="1"/><circle cx="32" cy="19" r="1"/><circle cx="32" cy="25" r="1"/><circle cx="35" cy="22" r="1"/><circle cx="35" cy="28" r="1"/><circle cx="26" cy="31" r="1"/><circle cx="26" cy="37" r="1"/><circle cx="23" cy="34" r="1"/><circle cx="29" cy="34" r="1"/><circle cx="23" cy="40" r="1"/><circle cx="29" cy="40" r="1"/><circle cx="32" cy="31" r="1"/><circle cx="32" cy="37" r="1"/><circle cx="35" cy="34" r="1"/><circle cx="35" cy="40" r="1"/></svg>