<svg enable-background="new 0 0 294.843 294.843" viewBox="0 0 294.843 294.843" xmlns="http://www.w3.org/2000/svg"><path d="m278.527 79.946c-10.324-20.023-25.38-37.704-43.538-51.132-2.665-1.97-6.421-1.407-8.392 1.257s-1.407 6.421 1.257 8.392c16.687 12.34 30.521 28.586 40.008 46.983 9.94 19.277 14.98 40.128 14.98 61.976 0 74.671-60.75 135.421-135.421 135.421s-135.421-60.75-135.421-135.422 60.75-135.421 135.421-135.421c3.313 0 6-2.687 6-6s-2.687-6-6-6c-81.288 0-147.421 66.133-147.421 147.421s66.133 147.421 147.421 147.421 147.421-66.133 147.421-147.421c0-23.444-5.641-46.776-16.315-67.475z"/><path d="m109.699 78.969c-1.876 1.067-3.035 3.059-3.035 5.216v131.674c0 3.314 2.687 6 6 6s6-2.686 6-6v-121.119l88.833 52.883-65.324 42.087c-2.785 1.795-3.589 5.508-1.794 8.293 1.796 2.786 5.508 3.59 8.294 1.794l73.465-47.333c1.746-1.125 2.786-3.073 2.749-5.15s-1.145-3.987-2.93-5.05l-106.224-63.235c-1.856-1.103-4.158-1.127-6.034-.06z"/></svg>