<svg enable-background="new 0 0 59 59" viewBox="0 0 59 59" xmlns="http://www.w3.org/2000/svg"><path d="m10.407 1.707c.391-.391.391-1.023 0-1.414s-1.023-.391-1.414 0c-11.307 11.307-11.307 29.705 0 41.012.196.195.452.293.707.293s.512-.098.707-.293c.391-.391.391-1.023 0-1.414-10.527-10.528-10.527-27.657 0-38.184z"/><path d="m50.005.293c-.391-.391-1.023-.391-1.414 0s-.391 1.023 0 1.414c5.092 5.091 7.896 11.871 7.896 19.092s-2.804 14.001-7.896 19.092c-.391.391-.391 1.023 0 1.414.195.195.451.293.707.293s.512-.098.707-.293c5.47-5.469 8.481-12.751 8.481-20.506s-3.011-15.037-8.481-20.506z"/><path d="m14.651 5.949c.391-.391.391-1.023 0-1.414s-1.023-.391-1.414 0c-8.968 8.968-8.968 23.56 0 32.527.195.195.451.293.707.293s.512-.098.707-.293c.391-.391.391-1.023 0-1.414-8.188-8.188-8.188-21.51 0-29.699z"/><path d="m45.763 4.535c-.391-.391-1.023-.391-1.414 0s-.391 1.023 0 1.414c8.188 8.188 8.188 21.511 0 29.699-.391.391-.391 1.023 0 1.414.195.195.451.293.707.293s.512-.098.707-.293c8.968-8.967 8.968-23.559 0-32.527z"/><path d="m18.893 8.778c-.391-.391-1.023-.391-1.414 0-3.206 3.206-4.972 7.475-4.972 12.021s1.766 8.814 4.972 12.021c.195.195.451.293.707.293s.512-.098.707-.293c.391-.391.391-1.023 0-1.414-5.849-5.849-5.849-15.364 0-21.213.39-.391.39-1.024 0-1.415z"/><path d="m41.521 8.778c-.391-.391-1.023-.391-1.414 0s-.391 1.023 0 1.414c5.849 5.849 5.849 15.364 0 21.213-.391.391-.391 1.023 0 1.414.195.195.451.293.707.293s.512-.098.707-.293c3.206-3.206 4.972-7.475 4.972-12.021s-1.766-8.814-4.972-12.02z"/><path d="m29.499 14c-3.859 0-7 3.141-7 7 0 3.519 2.614 6.432 6 6.92v30.08c0 .553.447 1 1 1s1-.447 1-1v-30.08c3.386-.488 6-3.401 6-6.92 0-3.859-3.14-7-7-7zm0 12c-2.757 0-5-2.243-5-5s2.243-5 5-5 5 2.243 5 5-2.243 5-5 5z"/></svg>