<svg viewBox="0 0 24.17 24.17" xmlns="http://www.w3.org/2000/svg"><path d="m23.6 20.82-1.9-1.82a.38.38 0 0 0 -.15-.1 5.1 5.1 0 1 0 -2.7 2.72.4.4 0 0 0 .08.16l1.9 1.86a2 2 0 1 0 2.76-2.78zm-6.75.4a4.34 4.34 0 1 1 4.34-4.33 4.35 4.35 0 0 1 -4.35 4.33zm6.2 1.84a1.24 1.24 0 0 1 -1.7 0l-1.85-1.82a5.1 5.1 0 0 0 1.7-1.7l1.86 1.82a1.2 1.2 0 0 1 0 1.7zm-.77-23.06h-20.4a1.9 1.9 0 0 0 -1.88 1.9v15.85a1.9 1.9 0 0 0 1.9 1.9h9.37a5.65 5.65 0 0 1 -.3-.76h-9.09a1.13 1.13 0 0 1 -1.14-1.15v-15.84a1.13 1.13 0 0 1 1.16-1.16h20.38a1.14 1.14 0 0 1 1.13 1.13v15.87a1.1 1.1 0 0 1 -.43.88l.5.5a2.06 2.06 0 0 0 .7-1.38v-15.84a1.9 1.9 0 0 0 -1.9-1.9zm-1.13 3a.38.38 0 0 0 -.76 0v8.74a6.88 6.88 0 0 1 .75.62zm-8.31 9.13v-9.13a.38.38 0 0 0 -.75 0v9.86a6.2 6.2 0 0 1 .74-.73zm6.04-9.13a.38.38 0 0 0 -.76 0v7.76a6 6 0 0 1 .76.2zm-1.51 7.68v-7.68a.38.38 0 0 0 -.75 0v7.64h.24zm-2.27-7.68a.38.38 0 0 0 -.75 0v8.16a6.18 6.18 0 0 1 .75-.28zm-5.66-.36a.38.38 0 0 0 -.38.36v12.48a.38.38 0 1 0 .76 0v-12.48a.38.38 0 0 0 -.38-.36zm-1.51 0a.38.38 0 0 0 -.38.36v12.48a.38.38 0 1 0 .75 0v-12.48a.38.38 0 0 0 -.37-.36zm-2.27 0a.38.38 0 0 0 -.36.36v12.48a.38.38 0 1 0 .74 0v-12.48a.38.38 0 0 0 -.38-.36zm-2.26 0a.38.38 0 0 0 -.4.36v12.48a.38.38 0 1 0 .75 0v-12.48a.38.38 0 0 0 -.35-.36z" fill="#00bed7"/></svg>