<svg viewBox="0 0 24.17 24.14" xmlns="http://www.w3.org/2000/svg"><path d="m24 19.33a4.45 4.45 0 0 1 -1.24-1.68 6.8 6.8 0 0 0 -1.5-2.15l-1.37-1.34a2.75 2.75 0 0 0 -1.75-1 1.56 1.56 0 0 0 -.65.15c-.37.17-.67.35-.7.36l-1.5.9c-.35.24-.9.58-1.22.77l-3.23-3.23a1.53 1.53 0 0 0 -2.1 0 1.5 1.5 0 0 0 0 2.1l4.6 4.62c-.25 0-.5-.08-.75-.1a1.58 1.58 0 0 0 -1.77 1.27c-.1.85.6 1.58 1.7 1.78h.3a20.56 20.56 0 0 1 6.64 2.24.38.38 0 0 0 .44-.06c.9-.86 1.52-1.5 2.15-2.15s1.2-1.22 2-2a.38.38 0 0 0 0-.54zm-2.54 2c-.57.6-1.15 1.18-1.94 1.94a21.2 21.2 0 0 0 -6.64-2.2h-.27c-.56-.1-1.15-.43-1.08-.93a.82.82 0 0 1 .85-.64h.1a14.87 14.87 0 0 1 1.88.34.38.38 0 0 0 .36-.63l-5.44-5.5a.74.74 0 0 1 0-1 .75.75 0 0 1 1 0l3.44 3.45 1.3 1.3a.38.38 0 0 0 .27.1.38.38 0 0 0 .27-.64l-1-.94c.25-.15.58-.34.86-.53l1.06 1.06a.38.38 0 0 0 .53 0 .38.38 0 0 0 .1-.28.38.38 0 0 0 -.1-.26l-.84-.96.83-.5 1 1a.38.38 0 1 0 .52-.53l-.84-.84.18-.08c.5-.23.9 0 1.56.66l1.36 1.3a6.1 6.1 0 0 1 1.34 2 4.84 4.84 0 0 0 1.12 1.64c-.67.63-1.24 1.17-1.74 1.72zm-16.53-17.15a6.78 6.78 0 0 1 1.44-.18 2.5 2.5 0 0 1 1.63.48 1.3 1.3 0 0 1 .5 1.08 1.44 1.44 0 0 1 -1 1.34 1.55 1.55 0 0 1 1.27 1.55 1.6 1.6 0 0 1 -.52 1.22 3 3 0 0 1 -2.1.57 9.77 9.77 0 0 1 -1.22-.07zm.8 2.5h.7c.82 0 1.3-.44 1.3-1s-.52-1-1.32-1a3.32 3.32 0 0 0 -.7.05zm0 2.9a4.4 4.4 0 0 0 .65 0c.8 0 1.56-.3 1.56-1.17s-.72-1.14-1.57-1.14h-.67zm4.89-5.48v3.6c0 1.37.6 1.94 1.42 1.94s1.48-.6 1.48-1.93v-3.61h.8v3.55c0 1.87-1 2.63-2.3 2.63s-2.2-.7-2.2-2.6v-3.6zm6.38 6.08v-2.58l-1.9-3.5h.9l.86 1.67c.23.46.42.83.6 1.26.17-.4.4-.8.62-1.26l.92-1.67h.9l-2 3.5v2.6zm-15.1 3.4a1.13 1.13 0 0 1 -1.14-1.13v-10.55a1.13 1.13 0 0 1 1.14-1.15h20.35a1.13 1.13 0 0 1 1.13 1.13v10.55a1.13 1.13 0 0 1 -1.13 1.13h-1.25l.77.75h.5a1.9 1.9 0 0 0 1.9-1.88v-10.53a1.9 1.9 0 0 0 -1.93-1.9h-20.34a1.9 1.9 0 0 0 -1.9 1.9v10.55a1.9 1.9 0 0 0 1.9 1.88h5.54a2.6 2.6 0 0 1 -.24-.75z" fill="#00bed7"/></svg>