<svg viewBox="0 0 24.17 24.17" xmlns="http://www.w3.org/2000/svg"><path d="m10.55 7.55c-1.67 0-3.9-.2-5.06-1.08-1.8-1.4-2.25-3.63-1-5.2a3.3 3.3 0 0 1 2.61-1.27 4.33 4.33 0 0 1 2.65 1c1.8 1.4 2.6 5.9 2.63 6.1a.4.4 0 0 1 -.07.28.38.38 0 0 1 -.3.12s-.6.05-1.45.05zm-3.45-6.8a2.52 2.52 0 0 0 -2 1c-1 1.25-.62 2.98.9 4.13.76.6 2.4.92 4.6.92h1c-.23-1.12-1-4.2-2.26-5.2a3.58 3.58 0 0 0 -2.24-.85zm6.16 6.8c-.67 0-1.14 0-1.14 0a.38.38 0 0 1 -.27-.14.4.4 0 0 1 -.08-.28c0-.15.63-3.6 2-4.7a2.94 2.94 0 0 1 4.23.2 2.58 2.58 0 0 1 .5 2.1 3.38 3.38 0 0 1 -1.3 2 7.13 7.13 0 0 1 -3.94.83zm-.65-.77h.66a6.26 6.26 0 0 0 3.44-.68 2.6 2.6 0 0 0 1-1.54 1.85 1.85 0 0 0 -.35-1.48 2.17 2.17 0 0 0 -3.09-.08c-.85.64-1.43 2.67-1.67 3.78zm-12.23 6.1h23.4v1.12h-23.38zm21.9 11.29h-20.4a1.9 1.9 0 0 1 -1.88-1.9v-12.07a1.9 1.9 0 0 1 1.9-1.9h20.38a1.9 1.9 0 0 1 1.9 1.9v12.08a1.9 1.9 0 0 1 -1.9 1.9zm-20.4-15.1a1.13 1.13 0 0 0 -1.12 1.13v12.08a1.13 1.13 0 0 0 1.13 1.13h20.4a1.13 1.13 0 0 0 1.13-1.12v-12.09a1.13 1.13 0 0 0 -1.12-1.13zm6.42 10.79h-4.9a.57.57 0 0 1 0-1.13h4.9a.57.57 0 1 1 0 1.13z" fill="#00bed7"/></svg>