<svg viewBox="0 0 24.17 24.16" xmlns="http://www.w3.org/2000/svg"><path d="m23.8 4.5a.38.38 0 0 0 -.22-.3l-8.3-4.2a.38.38 0 0 0 -.38 0l-2.8 1.8-3.24-1.75a.38.38 0 0 0 -.4 0l-8.3 5.3a.38.38 0 0 0 -.17.32.38.38 0 0 0 .18.33l2.83 1.68-2.83 1.82a.38.38 0 0 0 -.17.3.37.37 0 0 0 .17.33l7.93 5.3a.4.4 0 0 0 .43 0l3.34-2.35 1.38 2.92a.4.4 0 0 0 .25.2h.1a.4.4 0 0 0 .2-.06l7.94-5.67a.38.38 0 0 0 .13-.46l-1.33-3 3.1-2.16a.38.38 0 0 0 .15-.34zm-22.7 1.15 7.6-4.83 2.68 1.5-7.66 4.9zm10.82 6.46-7.47-4.44 7.67-4.92 7.32 4.1zm-3.62 2.55-7.23-4.84 2.67-1.7 7.5 4.47zm12.75-4.58-7.32 5.23-1.25-2.65 7.42-5.2zm-.92-3.7-7.3-4.1 2.3-1.46 7.54 3.78zm-.49 5.62v1.24a7 7 0 0 1 .75.12v-1.9zm-7.18 10.74v-8.4l-.6-1.27-.16.1v9.6l-7.55-4.12v-5.85l-.75-.5v6.58a.37.37 0 0 0 .2.33l8.3 4.54a.4.4 0 0 0 .18 0 .35.35 0 0 0 .2-.05l1.85-1.14a6.34 6.34 0 0 1 -.37-.66zm6.8 1.42a4.9 4.9 0 1 1 4.9-4.9 4.9 4.9 0 0 1 -4.9 4.9zm0-9.06a4.15 4.15 0 1 0 4.15 4.15 4.16 4.16 0 0 0 -4.14-4.15zm-.68 6.35a.4.4 0 0 1 -.3-.15l-1.36-1.8a.38.38 0 0 1 .08-.5.37.37 0 0 1 .52.08l1.06 1.4 2.42-3.25a.38.38 0 0 1 .53-.07.37.37 0 0 1 .07.53l-2.72 3.62a.37.37 0 0 1 -.3.15z" fill="#00bed7"/></svg>