<svg viewBox="0 0 24.17 24.17" xmlns="http://www.w3.org/2000/svg"><path d="m23.6 24.17h-23.03a.38.38 0 0 1 0-.75h23a.38.38 0 1 1 0 .75zm-16.43-5.5a.57.57 0 0 1 -.57-.57v-2.9a.57.57 0 0 1 1.13 0v2.9a.57.57 0 0 1 -.56.57zm8.69 3.33a.38.38 0 0 1 -.27-.64l3.77-3.75a.38.38 0 0 1 .53.55l-3.78 3.75a.38.38 0 0 1 -.26.1zm1.89-.05a.4.4 0 0 1 -.27-.1.38.38 0 0 1 0-.54l1.9-1.87a.38.38 0 0 1 .52 0 .38.38 0 0 1 0 .53l-1.9 1.87a.38.38 0 0 1 -.25.1zm-15.85 1.69a.38.38 0 0 0 .74 0v-9.87a4.22 4.22 0 0 1 -.75-.17zm6.84-9.86v9.86a.38.38 0 0 0 .75 0v-9.86c-.13 0-.25 0-.37 0a3.9 3.9 0 0 1 -.4 0zm12.78 9.86a.38.38 0 0 0 .75 0v-10a4.2 4.2 0 0 1 -.75.17zm.68-23.64h-20.2l-2 8.75v.7a3.23 3.23 0 0 0 6.2 1.32 3.23 3.23 0 0 0 5.9 0 3.23 3.23 0 0 0 5.9 0 3.23 3.23 0 0 0 6.18-1.32v-.7zm-16.5 9.45a2.48 2.48 0 0 1 -5 0v-.25h5zm.1-1h-5l1.78-7.7h3.78zm5.8 1a2.48 2.48 0 0 1 -5 0v-.25h5zm0-1h-5l.56-7.7h4.48zm5.88 1a2.48 2.48 0 1 1 -5 0v-.23h5zm-5.07-1v-7.68h4.59l.6 7.66zm5.4-7.7h3.8l1.7 7.7h-4.9zm5.6 8.7a2.48 2.48 0 0 1 -5 0v-.23h5z" fill="#00bed7"/></svg>