<svg viewBox="0 0 24.17 24.16" xmlns="http://www.w3.org/2000/svg"><path d="m11.3 9.75c0 1.83-.95 2.74-2.07 2.74s-2-.88-2-2.62.93-2.7 2.1-2.7 1.97.93 1.97 2.57zm-3.18.08c0 1.1.4 2 1.14 2s1.12-.83 1.12-2-.3-1.93-1.14-1.93-1.12.85-1.12 1.93zm1 6.32 5.1-9h.78l-5.1 9zm7.88-2.8c0 1.83-.95 2.73-2.07 2.73s-2-.87-2-2.6.93-2.72 2.1-2.72 1.97.94 1.97 2.6zm-3.18.08c0 1.1.4 1.95 1.13 1.95s1.12-.82 1.12-2-.3-1.93-1.14-1.93-1.15.88-1.15 1.98zm-1.74 10.73a.9.9 0 0 1 -.65-.27l-1.43-1.43-1.85.76a.94.94 0 0 1 -1.15-.5l-.8-1.85h-2a.92.92 0 0 1 -.93-.88v-2l-1.85-.77a.93.93 0 0 1 -.5-1.22l.77-1.85-1.43-1.43a.9.9 0 0 1 0-1.3l1.44-1.42-.8-1.85a.87.87 0 0 1 0-.7.9.9 0 0 1 .5-.5l1.85-.77v-2a.92.92 0 0 1 .92-.92h2l.83-1.86a.94.94 0 0 1 1.17-.5l1.83.8 1.43-1.44a.93.93 0 0 1 1.3 0l1.42 1.42 1.85-.78a.94.94 0 0 1 1.2.5l.8 1.86h2a.92.92 0 0 1 .92.92v2l1.82.82a.9.9 0 0 1 .5.5.9.9 0 0 1 0 .7l-.76 1.8 1.42 1.42a.9.9 0 0 1 .27.65.9.9 0 0 1 -.27.65l-1.4 1.42.74 1.86a.9.9 0 0 1 0 .7.9.9 0 0 1 -.5.5l-1.84.8v2a.92.92 0 0 1 -.92.92h-1.98l-.77 1.85a.94.94 0 0 1 -1.2.5l-1.86-.76-1.42 1.43a.9.9 0 0 1 -.67.23zm-1.88-2.58 1.8 1.77a.14.14 0 0 0 .23 0l1.77-1.77 2.32 1c.1 0 .2 0 .22-.1l1-2.3h2.46a.16.16 0 0 0 .16-.18v-2.54l2.32-1a.15.15 0 0 0 .1-.1.18.18 0 0 0 0-.12l-1-2.3 1.76-1.78a.16.16 0 0 0 0-.12.15.15 0 0 0 0-.1l-1.77-1.8 1-2.3a.2.2 0 0 0 0-.13.16.16 0 0 0 -.1-.08l-2.3-1v-2.45a.16.16 0 0 0 -.17-.18h-2.53l-1-2.32a.17.17 0 0 0 -.16-.1l-2.3 1-1.8-1.8a.14.14 0 0 0 -.23 0l-1.78 1.82-2.32-1c-.13 0-.2 0-.22.08l-.96 2.32h-2.5a.16.16 0 0 0 -.2.18v2.5l-2.32 1a.16.16 0 0 0 -.1.1.2.2 0 0 0 0 .13l1 2.33-1.76 1.76a.15.15 0 0 0 -.04.1.16.16 0 0 0 0 .12l1.8 1.78-1 2.32a.16.16 0 0 0 .1.2l2.3 1v2.48a.16.16 0 0 0 .17.17h2.55l1 2.32a.17.17 0 0 0 .15.1z" fill="#00bed7"/></svg>