<svg height="100" viewBox="0 0 160 100" width="160" xmlns="http://www.w3.org/2000/svg"><g fill="none" fill-rule="evenodd" transform="translate(-1)"><path d="m149 .00000101c-8 .00000076-92.6992188-.00000261-140 0-4 .00000022-8 4-8 8v79.99999999c-.00000046 8 4 12 12 12 44.6232096 0 128 .000001 136 0 8 0 12-4 12-12v-76c0-7.99999999-4-11.99999999-12-11.99999999zm0 0" fill="#f4f4f4"/><circle cx="81" cy="50" fill="#306fc5" r="44"/><path d="m92 58.5777473v5.3151104c-.7003218.4386124-1.4483206.824659-2.244 1.1581423-1.9040095.798004-3.9899887 1.197-6.258 1.197s-4.3539905-.398996-6.258-1.197-3.5349932-1.896993-4.893-3.297-2.4219962-3.0519905-3.192-4.956-1.155-3.9619889-1.155-6.174.3849962-4.2699905 1.155-6.174 1.8339932-3.555993 3.192-4.956 2.9889905-2.498996 4.893-3.297 3.9899887-1.197 6.258-1.197 4.3539905.398996 6.258 1.197c.7956794.3334833 1.5436782.7195299 2.244 1.1581423v5.3151104c-.1145602-.1376529-.2325602-.2724037-.354-.4042527-.9800049-1.0640053-2.1559931-1.9109968-3.528-2.541-1.3720069-.6300031-2.9119915-.945-4.62-.945s-3.2479931.3149969-4.62.945c-1.3720069.6300032-2.5479951 1.4769947-3.528 2.541s-1.7359973 2.3169928-2.268 3.759-.798 2.9749919-.798 4.599.2659973 3.1569928.798 4.599 1.2879951 2.6949947 2.268 3.759 2.1559931 1.9109969 3.528 2.541c1.3720069.6300032 2.9119915.945 4.62.945s3.2479931-.3149968 4.62-.945c1.3720069-.6300031 2.5479951-1.4769947 3.528-2.541.1214398-.131849.2394398-.2665998.354-.4042527zm-46 2.6302527 11.928-11.844c.4200021-.392002.825998-.8189977 1.218-1.281s.7419985-.9449975 1.05-1.449.5529991-1.0359972.735-1.596.273-1.1479969.273-1.764c0-.7280036-.1329987-1.3859971-.399-1.974s-.6299977-1.084998-1.092-1.491-1.0079968-.7209989-1.638-.945c-.6300031-.2240011-1.2949965-.336-1.995-.336-1.4560073 0-2.6599952.4059959-3.612 1.218s-1.5539987 1.9319929-1.806 3.36l-4.368-.378c.196001-1.3160066.5809971-2.4569952 1.155-3.423s1.2879957-1.7709968 2.142-2.415 1.8339945-1.1199985 2.94-1.428 2.3029936-.462 3.591-.462 2.4989943.1749982 3.633.525 2.1279957.8679966 2.982 1.554 1.5259976 1.5399949 2.016 2.562c.4900025 1.0220051.735 2.2189931.735 3.591 0 .9800049-.1469985 1.8969957-.441 2.751s-.6789976 1.6589962-1.155 2.415-1.0219969 1.4699966-1.638 2.142-1.2599966 1.3299968-1.932 1.974l-9.786 9.45h14.952v3.528h-19.488zm63.46 5.04c-2.268011 0-4.35399-.398996-6.258-1.197s-3.5349932-1.896993-4.893-3.297-2.4219961-3.0519905-3.192-4.956c-.7700038-1.9040095-1.155-3.9619889-1.155-6.174s.3849962-4.2699905 1.155-6.174c.7700039-1.9040095 1.8339932-3.555993 3.192-4.956s2.98899-2.498996 4.893-3.297 3.989989-1.197 6.258-1.197 4.35399.398996 6.258 1.197 3.534993 1.896993 4.893 3.297 2.421996 3.0519905 3.192 4.956 1.155 3.9619889 1.155 6.174-.384996 4.2699905-1.155 6.174-1.833993 3.555993-3.192 4.956-2.98899 2.498996-4.893 3.297-3.989989 1.197-6.258 1.197zm0-3.78c1.708009 0 3.247993-.3149968 4.62-.945 1.372007-.6300031 2.547995-1.4769947 3.528-2.541s1.735997-2.3169928 2.268-3.759.798-2.9749919.798-4.599-.265997-3.1569928-.798-4.599-1.287995-2.6949947-2.268-3.759-2.155993-1.9109968-3.528-2.541c-1.372007-.6300031-2.911991-.945-4.62-.945s-3.247993.3149969-4.62.945c-1.372007.6300032-2.547995 1.4769947-3.528 2.541s-1.7359973 2.3169928-2.268 3.759-.798 2.9749919-.798 4.599.2659973 3.1569928.798 4.599 1.287995 2.6949947 2.268 3.759 2.155993 1.9109969 3.528 2.541c1.372007.6300032 2.911991.945 4.62.945zm0 0" fill="#fff"/></g></svg>