<svg height="100" viewBox="0 0 160 100" width="160" xmlns="http://www.w3.org/2000/svg"><g fill="none" fill-rule="evenodd" transform="translate(-1)"><path d="m149 .00000101c-8 .00000076-92.6992188-.00000261-140 0-4 .00000022-8 4-8 8v79.99999999c-.00000046 8 4 12 12 12 44.6232096 0 128 .000001 136 0 8 0 12-4 12-12v-76c0-7.99999999-4-11.99999999-12-11.99999999zm0 0" fill="#265697"/><path d="m150.545235 50.5c.006577 23.2377654-18.625638 42.0792737-41.615705 42.0854469-22.9905367.0056984-41.6307381-18.8263128-41.6368454-42.0640782v-.0213687c-.0061074-23.2372905 18.6261073-42.0797486 41.6152344-42.08592179 22.990537-.00617318 41.631209 18.82678769 41.637316 42.06455309zm0 0" fill="#dfac16"/><path d="m52.8125503 8.425c-22.8538255.14673184-41.358255 18.9402793-41.358255 42.075 0 23.2249441 18.6486577 42.0745251 41.6265101 42.0745251 10.7842282 0 20.6142953-4.1540782 28.0112751-10.9626257-.0004698 0-.0014094-.0009497-.0032886-.0018994h.0089262c1.5146309-1.3951397 2.9273155-2.9004469 4.2258389-4.5054749h-8.528255c-1.1387919-1.390391-2.1737584-2.8391899-3.1034899-4.3340502h14.7084564c.8944966-1.4468995 1.7044295-2.9493576 2.4232214-4.5054749h-19.5600671c-.6666443-1.4445251-1.2454362-2.9218156-1.7396644-4.4204749h23.0412752c1.3887248-4.1939664 2.1422818-8.6809217 2.1422818-13.345 0-3.0922905-.3316778-6.1071787-.9593288-9.01h-25.4461745c.3152349-1.4939106.7131543-2.9697765 1.187651-4.42h23.0497315c-.5153691-1.543296-1.1138926-3.0471787-1.7946308-4.505h-19.48349c.7028188-1.5176536 1.4991275-2.9939944 2.3884564-4.4195251h14.697651c-.9781208-1.5751117-2.0605369-3.0799441-3.2308054-4.5054749h-8.1946979c1.2670469-1.5072067 2.6618791-2.9265642 4.1760402-4.25-7.3974496-6.8094972-17.2303355-10.9645251-28.0169127-10.9645251-.0897316 0-.1785235-.00047486-.2682551 0 0 0 .0897316-.00047486 0 0zm0 0" fill="#bf3126"/><g fill="#fff"><path d="m68.0495302 61.2123743.5548322-3.807905c-.3030201 0-.748859.1310614-1.1420805.1310614-1.5428188 0-1.7128859-.8291061-1.614698-1.4421508l1.2463758-7.7696648h2.3447651l.5661074-4.2120112h-2.2108725l.4500671-2.6193296h-4.4320805c-.0977181.098771-2.6163087 14.7315922-2.6163087 16.5132682 0 2.6378491 1.465302 3.8126536 3.5314765 3.7936592 1.6179866-.013771 2.8779866-.4663129 3.3224161-.5869274 0 0-.4444295.1206145 0 0zm0 0"/><path d="m69.4537584 53.9522346c0 6.330838 4.1342282 7.8351956 7.6563087 7.8351956 3.2510067 0 4.6815436-.734609 4.6815436-.734609l.7808054-4.3207542s-2.4730201 1.1012012-4.7064429 1.1012012c-4.7590604 0-3.9256376-3.5866202-3.9256376-3.5866202h9.0069798s.5816108-2.9028212.5816108-4.0856983c0-2.9517318-1.4535571-6.548324-6.3197316-6.548324-4.45651.0009497-7.7554362 4.8544972-7.7554362 10.3396089zm7.772349-6.3275139c2.501208 0 2.0398658 2.8410894 2.0398658 3.0709218h-4.9206712c0-.2934637.4651007-3.0709218 2.8808054-3.0709218zm0 0"/><path d="m105.291879 61.2104749.79302-4.8839386s-2.174698 1.1021509-3.667248 1.1021509c-3.1438926 0-4.4048322-2.4265364-4.4048322-5.0335196 0-5.2885196 2.7051002-8.1979888 5.7165102-8.1979888 2.258322 0 4.070805 1.281648 4.070805 1.281648l.72349-4.7452793s-2.687718-1.0993017-4.991611-1.0993017c-5.1165768 0-10.0940935 4.4864805-10.0940935 12.9124022 0 5.5872067 2.6877181 9.2773464 7.9767115 9.2773464 1.495369.0004749 3.877248-.6135195 3.877248-.6135195zm0 0"/><path d="m43.6730872 43.6824302c-3.0391275 0-5.368859.9872346-5.368859.9872346l-.6431544 3.8591899s1.9228859-.7896927 4.8295302-.7896927c1.6504027 0 2.8577853.1875698 2.8577853 1.5432961 0 .8234078-.1479866 1.1273184-.1479866 1.1273184s-1.3018121-.1101676-1.9045638-.1101676c-3.8330872 0-7.8597315 1.6534637-7.8597315 6.6385475 0 3.9280447 2.6416778 4.8293296 4.2789262 4.8293296 3.1269798 0 4.4748322-2.0509218 4.5467114-2.0570949l-.1461074 1.7118715h3.9026174l1.7410739-12.3373464c0-5.2339106-4.5171141-5.402486-6.0862417-5.402486zm.9494631 10.0451955c.0845638.7536034-.4674496 4.2860894-3.135906 4.2860894-1.3765101 0-1.7344966-1.0627374-1.7344966-1.6914525 0-1.2260894.6591275-2.6981565 3.9068456-2.6981565.7554362.0009498.8362416.0826257.963557.1035196 0 0-.1273154-.0208939 0 0zm0 0"/><path d="m53.9071812 61.6772626c.9983222 0 6.7054362.2564246 6.7054362-5.6959498 0-5.5648882-5.2828859-4.4655865-5.2828859-6.701229 0-1.1130726.861141-1.4635196 2.4349665-1.4635196.6248322 0 3.0287919.200866 3.0287919.200866l.5590604-3.9555866c0 .0004748-1.5559731-.3518715-4.0891275-.3518715-3.2787248 0-6.6067785 1.3229609-6.6067785 5.8493296 0 5.1289665 5.5492617 4.6142179 5.5492617 6.7748324 0 1.4421508-1.5503355 1.5594413-2.7450335 1.5594413-2.0675839 0-3.929396-.7170391-3.9359732-.6828491l-.5910067 3.9156983c.1071141.0332402 1.255302.550838 4.9732886.550838zm0 0"/><path d="m142.004295 40.1328492-.95604 5.9960614s-1.668255-2.3291899-4.279866-2.3291899c-4.060939 0-7.445839 4.9489944-7.445839 10.6354469 0 3.6706704 1.805437 7.2672626 5.496175 7.2672626 2.654832 0 4.126711-1.8709498 4.126711-1.8709498l-.194966 1.5979051h4.310872l3.385839-21.3036592zm-2.058188 11.6910614c0 2.3662291-1.158993 5.5268995-3.562013 5.5268995-1.594966 0-2.342416-1.353352-2.342416-3.4774023 0-3.4731285 1.543288-5.7648044 3.490604-5.7648044 1.595436-.0004749 2.413825 1.1073743 2.413825 3.7153072zm0 0"/><path d="m19.675302 61.447905 2.6980537-16.0835195.3960403 16.0835195h3.0536912l5.6963088-16.0835195-2.5232886 16.0835195h4.5373154l3.4943624-21.3321508h-7.0164429l-4.3695973 13.0885754-.2273826-13.0885754h-6.4677181l-3.5446309 21.3321508zm0 0"/><path d="m87.9614765 61.4773464c1.2900671-7.415419 1.5291946-13.4366481 4.6077852-12.3344972.5388591-2.8700559 1.0589262-3.9802794 1.6471141-5.1949721 0 0-.2757718-.0584078-.8545637-.0584078-1.9848993 0-3.4553691 2.7408938-3.4553691 2.7408938l.3951006-2.5172346h-4.1267114l-2.7647651 17.3642179zm0 0"/><path d="m115.51855 43.6824302c-3.039127 0-5.368859.9872346-5.368859.9872346l-.642684 3.8591899s1.922886-.7896927 4.82953-.7896927c1.650403 0 2.856846.1875698 2.856846 1.5432961 0 .8234078-.147047 1.1273184-.147047 1.1273184s-1.301813-.1101676-1.905034-.1101676c-3.832617 0-7.859262 1.6534637-7.859262 6.6385475 0 3.9280447 2.641208 4.8293296 4.278457 4.8293296 3.12698 0 4.474832-2.0509218 4.546241-2.0570949l-.145168 1.7118715h3.902618l1.740604-12.3373464c.00047-5.2339106-4.517114-5.402486-6.086242-5.402486zm.950873 10.0451955c.084564.7536034-.46792 4.2860894-3.137316 4.2860894-1.37651 0-1.733557-1.0627374-1.733557-1.6914525 0-1.2260894.659128-2.6981565 3.906376-2.6981565.755436.0009498.835772.0826257.964497.1035196 0 0-.128725-.0208939 0 0zm0 0"/><path d="m125.171738 61.4773464c1.290537-7.415419 1.529665-13.4366481 4.607316-12.3344972.539798-2.8700559 1.060335-3.9802794 1.648053-5.1949721 0 0-.275771-.0584078-.854563-.0584078-1.9849 0-3.45537 2.7408938-3.45537 2.7408938l.395101-2.5172346h-4.126711l-2.764765 17.3642179zm0 0"/></g></g></svg>