<svg height="100" viewBox="0 0 160 100" width="160" xmlns="http://www.w3.org/2000/svg"><g fill="none" fill-rule="evenodd" transform="translate(-1)"><path d="m149 .00000101c-8 .00000076-92.6992188-.00000261-140 0-4 .00000022-8 4-8 8v79.99999999c-.00000046 8 4 12 12 12 44.6232096 0 128 .000001 136 0 8 0 12-4 12-12v-76c0-7.99999999-4-11.99999999-12-11.99999999zm0 0" fill="#f6f6f6"/><path d="m152.76461 33.4570312h-4.200372c-.002368 0-.004737.0007686-.006315.0007686l-.002369-.0007686c-.961483 0-1.937176.7170848-2.209517 1.6293887-.011051.0368918-.029997.0722465-.03868.1106755 0 0-.100253.4450075-.27392 1.2143557l-5.769691 25.4630406c-.133407.5756661-.222609.9507329-.249448 1.0483425l.011051.0138344c-.199717.8900152.349702 1.6263144 1.251981 1.7085524l.011841.0169087h4.35983c.955168 0 1.924546-.7101675 2.20557-1.6109427.01342-.043809.034734-.0845438.044996-.1283528l6.293849-27.727276-.009473-.0030743c.213926-.9484272-.413643-1.7354527-1.419333-1.7354527zm-21.544777 25.0254905c-.582574.3573895-1.198302.6632842-1.843238.9238326-.866756.3404808-1.688517.5187912-2.448704.5187912-1.166726 0-2.063479-.1606331-2.669735-.5041882-.607045-.3258777-.925171-.8923208-.914909-1.7031722 0-.9361299.22182-1.6624376.681248-2.2319551.462586-.5479972 1.150149-.9891619 2.002696-1.3181139.84781-.279763 1.890602-.5103368 3.094429-.6755814 1.07042-.1314271 3.186789-.3689182 3.457552-.3704554.270762-.0023057.450744-.1475673.329967.5549145-.053679.305126-.664671 2.7476719-.944906 3.8582693-.081308.332795-.536.8177687-.7444.9476586 0 0 .2084-.1298899 0 0zm8.306017-17.1669929c-1.782454-.9684103-4.570599-1.4579954-8.385746-1.4579954-1.886655 0-3.782782.1475672-5.685225.435016-1.39644.2082851-1.54011.2428711-2.407655.4265616-1.784823.3781412-2.060322 2.1182053-2.060322 2.1182053l-.573101 2.2949785c-.325231 1.467987.533631 1.4072692.916488 1.2935194.779133-.2290367 1.20146-.4565362 2.791302-.8070085 1.519586-.3358693 3.125216-.5871948 4.406404-.5772032 1.878761 0 3.307566.2005992 4.257209.5864262.950432.4035042 1.420911 1.0906143 1.420911 2.0736276.003158.2336482.009473.4542305-.07736.647144-.078151.1798476-.228136.3535466-.677302.4127272-2.681575.1552531-4.606121.3935127-6.923786.7224648-2.286878.3135804-4.287995.8508176-5.960723 1.5948026-1.783244.7701167-3.117322 1.8007819-4.036968 3.1065985-.895174 1.3119653-1.345129 2.9006193-1.347498 4.7721105 0 1.7685015.65283 3.2111254 1.915863 4.3309458 1.278031 1.1052174 2.940497 1.652446 4.951876 1.652446 1.256718-.0084544 2.240304-.096841 2.945234-.2682343.697826-.1713932 1.458803-.4150329 2.262407-.7539765.60073-.2444083 1.248823-.5979549 1.933229-1.0414253.685195-.4450076 1.159622-.7608938 1.768246-1.1490264l.022103.0368918-.171299.7355306c-.00079.0069172-.011052.0107601-.011052.0176773l.005526.0138345c-.19577.8861722.351281 1.62324 1.25277 1.7100895l.011052.0153716h.079729l.003157.0038429c.598362 0 2.652369-.0007686 3.612273-.0038429h.670197c.044206 0 .048942-.0130659.066309-.0230574.920435-.1099069 1.802979-.8400575 2.01059-1.7162382l3.428343-14.4070237c.07894-.3389436.141302-.7301506.178404-1.1805382.042627-.4549991.093148-.8292973.07815-1.0998373.007894-2.0390416-.892017-3.5462261-2.669735-4.5154049zm-20.644473-3.2816063c-.584942-1.1082917-1.468275-2.0006126-2.585269-2.6954085-1.145413-.6932588-2.50633-1.1766953-4.081963-1.458764-1.558267-.2659285-3.410977-.4181073-5.52182-.4227188l-9.8216565.0046115c-1.0112153.0169088-2.0034852.7900998-2.2371462 1.7423699l-6.6032915 27.9778329c-.2407655.9507329.4160113 1.7431384 1.4090706 1.7377584l4.7126898-.0084544c.9993744.0084544 2.0176943-.7785711 2.2537235-1.729304l1.5929997-6.7896318c.2233989-.9515015 1.2393506-1.7485185 2.2553026-1.734684h1.339603c5.748377 0 10.205303-1.149795 13.396828-3.4386249 3.183631-2.3003587 4.786103-5.317802 4.786103-9.0707759-.010262-1.6386117-.296812-3.0189805-.895174-4.1142064zm-10.132678 9.1507082c-1.406702.9960791-3.38098 1.4956558-5.921254 1.4956558h-1.168305c-1.010426.0115287-1.6632556-.7839512-1.423279-1.7377584l1.408281-5.9380456c.209979-.9392042 1.235403-1.738527 2.23162-1.7308412l1.543268-.0076858c1.8014.0076858 3.148898.3012832 4.079595.8846351.914909.5902691 1.358549 1.5056473 1.365654 2.7253831.003947 1.8591939-.702562 3.2895205-2.11558 4.308657" fill="#306fc5"/><path d="m85.8355974 39.8576594c-.8943152 0-2.0673141.7089103-2.6225757 1.5656536 0 0-5.9822242 10.0457618-6.5697767 11.0496504-.3193982.539762-.6430083.1966522-.6970604-.0041256-.0435224-.2440962-1.8539139-10.9795157-1.8539139-10.9795157-.2035725-.8643068-1.1252646-1.6062217-2.2779063-1.6027838l-3.730291.0055008c-.8992289 0-1.4601063.7054724-1.2600437 1.5580901 0 0 2.8514193 15.8311855 3.4073829 19.554512.2772798 2.0593468-.028781 2.4244597-.028781 2.4244597l-3.6965962 6.3134966c-.5412221.8560557-.244989 1.5574025.6500281 1.5574025l4.3227572-.003438c.8950172 0 2.0806516-.6979088 2.61345-1.5553397l16.6297692-27.5498658s1.5906736-2.3536374.1235475-2.3336971c-1.0003133.0137519-5.00999 0-5.00999 0zm-31.2215388 18.6248623c-.5825737.3573895-1.1975126.661747-1.8424485.9230641-.8667561.3389435-1.6924635.5187912-2.450283.5187912-1.1635686 0-2.0626898-.1614018-2.6697348-.5034197-.6062556-.3266463-.9259607-.8930894-.9156985-1.7047094 0-.9338242.2241882-1.6624376.6828269-2.2311865.463375-.5487658 1.1477807-.990699 2.0003276-1.3188825.8501787-.2813001 1.8961275-.5087996 3.0960083-.6740442 1.07042-.1314271 3.1891569-.3681496 3.4591301-.3719925.2683944-.0007686.4491659-.1475673.3283884.5549144-.0521001.3051261-.6638814 2.7492091-.9441167 3.8590379-.0844653.3343321-.539157.8193058-.7443998.9484272 0 0 .2052428-.1291214 0 0zm8.3060171-17.1677615c-1.7824545-.9684102-4.5698092-1.4572268-8.3849566-1.4572268-1.8874441 0-3.7827822.1460301-5.6860142.4342474-1.3988084.2067479-1.5393208.2421026-2.4076556.4257931-1.7856121.3796783-2.0603217 2.1182052-2.0603217 2.1182052l-.5731009 2.2965157c-.3244415 1.4672184.53521 1.4065006.9164879 1.2927509.7775543-.2290368 1.202249-.4557677 2.7920911-.8077772 1.5172177-.3343321 3.1252159-.584889 4.4048256-.5764346 1.8803396 0 3.3075663.1998307 4.2572088.5856576.9512213.4035043 1.4193327 1.0921515 1.4193327 2.0743962.0063151.2336482.0110515.4549991-.0734138.6463754-.0797289.1813848-.2312928.3543152-.6804587.4127272-2.6784182.1575589-4.6021745.3950499-6.923786.724002-2.2868781.3135804-4.2872057.8508176-5.9607237 1.594034-1.783244.7701167-3.1157432 1.802319-4.0338099 3.1073671-.8983318 1.3111967-1.3474977 2.8998507-1.3490765 4.7721105 0 1.7677329.6536193 3.2111254 1.9150729 4.3301772 1.2788204 1.1052174 2.939708 1.6532146 4.9510872 1.6532146 1.2575067-.0084544 2.2403038-.0983782 2.947602-.2682343.697036-.1729304 1.4588024-.4150329 2.2592492-.7539765.603098-.2444083 1.2496128-.5994921 1.9348079-1.0421939.6836163-.444239 1.160411-.7601252 1.771403-1.1482578l.0189455.0361232-.1712988.7347621c-.0015788.0069172-.0110515.0115287-.0110515.019983l.0071045.0115287c-.19577.888478.3497021 1.6247772 1.2519809 1.7100895l.0110516.0169088h.0789395l.0023682.00538c.5999404 0 2.6547363-.0030743 3.6122728-.00538h.6709859c.0449956 0 .0513107-.014603.0655199-.023826.922803-.1129812 1.8021894-.8415946 2.0121685-1.714701l3.4283437-14.4085609c.0773607-.338175.1405124-.729382.1752458-1.179001.0457849-.4573049.0955168-.8300659.0820971-1.0998374.0078939-2.0405787-.8935955-3.5477632-2.6705243-4.516942zm-21.4445357-3.2808377c-.5849419-1.1082917-1.4682752-2.0006126-2.5852695-2.6954085-1.1454126-.6932588-2.50633-1.1766953-4.081963-1.458764-1.5582663-.2659285-3.410977-.4181073-5.52182-.4227188l-9.821656.0046115c-1.0112154.0169088-2.0034853.7900998-2.2371463 1.7423699l-6.6032915 27.9778329c-.2407655.9507329.4160114 1.7431384 1.4090706 1.7377584l4.7126898-.0084544c.9993744.0084544 2.0176944-.7785711 2.2537235-1.729304l1.5929997-6.7896318c.2233989-.9515015 1.2393506-1.7485185 2.2553023-1.734684h1.3396038c5.7483764 0 10.2053022-1.149795 13.3968273-3.4386249 3.1836311-2.3003587 4.7861035-5.317802 4.7861035-9.0707759-.0102621-1.6386117-.2968126-3.0189805-.8951742-4.1142064zm-10.1326778 9.1507082c-1.4067024.9960791-3.38098 1.4956558-5.921254 1.4956558h-1.168305c-1.0104259.0115287-1.6632558-.7839512-1.4232797-1.7377584l1.4082812-5.9380456c.2099792-.9392042 1.2354036-1.738527 2.2316205-1.7308412l1.5432677-.0076858c1.8014001.0076858 3.1488978.3012832 4.0795948.8846351.9149092.5902691 1.3585493 1.5056473 1.3656539 2.7253831.0039469 1.8591939-.7025618 3.2895205-2.1155794 4.308657" fill="#265697"/></g></svg>