<svg height="100" viewBox="0 0 160 100" width="160" xmlns="http://www.w3.org/2000/svg"><g fill="none" fill-rule="evenodd" transform="translate(-1)"><path d="m149 .00000101c-8 .00000076-92.6992188-.00000261-140 0-4 .00000022-8 4-8 8v79.99999999c-.00000046 8 4 12 12 12 44.6232096 0 128 .000001 136 0 8 0 12-4 12-12v-76c0-7.99999999-4-11.99999999-12-11.99999999zm0 0" fill="#6a3494"/><path d="m110.663041 61.4288887c2.977218 0 5.39038 2.3659884 5.39038 5.2841355 0 2.9187151-2.413162 5.2869758-5.39038 5.2869758-2.973743 0-5.385747-2.3682607-5.385747-5.2869758 0-2.9181471 2.412004-5.2841355 5.385747-5.2841355zm-41.2837784-2.8528197c-.2426482-.5998761-1.9933056-5.4505784-6.2271978-10.4779488v21.4966949l-11.2811133-2.1876162v-38.9635406h11.2811133v12.0441025c3.2673533-4.8069614 4.880761-12.0441025 4.880761-12.0441025h13.5124342c-1.3365919 5.4500104-7.1833127 15.5007747-7.1833127 15.5007747 5.2473392 6.5259244 7.5522074 13.4790332 7.9187857 14.631636zm29.6580933.4061661c-10.1043566-.3181161-15.2335568-4.7649246-15.2335568-13.6045755v-16.9340013h11.0234082v13.8090787c0 5.2937926.7065174 7.5626421 7.1097657 7.7785065v8.79591c-1.077729.2243854-2.8996171.1550816-2.8996171.1550816zm-66.0860129-4.6967569c-1.3817627.0891861-4.5807807.2914171-4.5807807 3.1164016 0 3.4089547 4.6056825 3.4089547 6.3331754 3.4089547 3.0374455 0 6.9713574-.8799318 9.7806326-1.7041933 0 0 1.5670787-.5419335 2.9001959-1.0975005l.1245092-.0329478v9.3361393l-.1702591.0494216c-3.3154196 1.1378331-7.1705722 2.2330613-14.3179798 2.2330613-12.3235161 0-16.690025-7.042295-16.690025-13.0757075 0-3.4776905 1.5190123-11.6623631 15.6331445-12.6064862 1.1964466-.0721442 4.3711419-.2510845 4.3711419-3.1709358 0-2.4102975-2.5990574-3.8315947-6.9713575-3.8315947-4.7915776 0-9.4395353 1.198616-12.2627092 2.3353129v-9.6156269c4.2263637-1.0867073 8.9907231-1.6297769 14.5745267-1.6297769 12.0495958 0 17.4463461 6.663396 17.4463461 13.2671452 0 7.4876575-6.0389862 12.3519934-16.170561 13.018333 0 0 10.1315748-.6663396 0 0zm72.247192-25.8418199h10.934225v30.0983268h-10.934225zm31.522836 39.2322351v-39.2322351h10.935962v41.1511568zm-15.956869 0 10.925538 1.9189217v-41.1511568h-10.925538zm0 0" fill="#fff" transform="matrix(1 0 0 -1 0 100)"/></g></svg>