<svg height="100" viewBox="0 0 160 100" width="160" xmlns="http://www.w3.org/2000/svg"><g fill="none" fill-rule="evenodd"><path d="m148 .00000101c-8 .00000076-92.6992188-.00000261-140 0-4 .00000022-8 4-8 8v79.99999999c-.00000046 8 4 12 12 12 44.6232096 0 128 .000001 136 0 8 0 12-4 12-12v-76c0-7.99999999-4-11.99999999-12-11.99999999zm0 0" fill="#1c1c1c"/><path d="m54.4123453 65.8226235c-1.0012883-.217263-2.1339293-.7568637-2.7422236-1.3064211-.2712928-.245096-.6648999-.7967451-.8797027-1.2329205l-.3887344-.7893608-.0344087-5.3990842-.0344088-5.3990854h2.8667239 2.8667238l.0002385 4.6211456c.0001192 4.1640518.0208101 4.6615482.2086969 5.0296084.2614841.5122329.5025338.6620284.9034167.5614138.6544997-.1642826.6764784-.3428258.6764784-5.4956584v-4.7165094h2.9217566 2.9217566v4.8731931c0 2.7747409-.0517461 5.1460469-.1201676 5.5068362-.3805594 2.0066803-1.7517625 3.2647517-4.0785564 3.7420558-1.1494966.2358001-4.0105235.2384929-5.0875892.0047822zm46.0396977-.0577172c-1.2043219-.3154984-1.9834745-.7605535-2.8441202-1.624573-1.3300432-1.3352582-1.8673936-2.9087387-1.8673936-5.4681426 0-2.5604235.5472855-4.1451044 1.900134-5.5018906 1.2915666-1.295328 2.8342868-1.828173 5.2930128-1.828173 2.470737 0 4.012924.5324598 5.315822 1.8353581 1.35912 1.3591201 1.892022 2.9067459 1.892022 5.4947055 0 2.5975359-.523974 4.1308248-1.872457 5.4793085-1.357664 1.3576628-2.818442 1.8591233-5.384277 1.8483307-1.137493-.0047822-1.797573-.0685266-2.432743-.2349236 0 0 .63517.166397 0 0zm3.048077-3.8772724c.786116-.5506175.98559-4.6052751.295816-6.0129703-.390899-.7977504-1.289772-.8033006-1.694249-.0104587-.730307 1.4315189-.45892 5.7888036.381592 6.1267233.304262.122325.760962.0759323 1.016841-.1032919zm29.1741-11.5036915v-15.3839424h1.073303 1.073299v15.3839424 15.3839429h-1.073299-1.073303zm11.283308.1788831v-15.2050594h1.013671 1.01367v15.2050594 15.2050598h-1.01367-1.013671zm-76.2041868 8.1093652v-6.9764392h3.4471277 3.4471266l.3523198.9838568c.1937756.5411213.7489165 2.1209031 1.2336455 3.5106265l.881327 2.5267697.0315884-3.5106265.0315883-3.5106265h2.3833329 2.3833329v6.9764392 6.9764392l-3.4285919-.0014549-3.4285919-.0014549-1.2521814-3.6324542-1.2521814-3.6324578-.0315371 3.6339115-.0315371 3.6339103h-2.3833842-2.3833841zm18.4845825 0v-6.9764392h2.8621289 2.8621289v6.9764392 6.9764392h-2.8621289-2.8621289zm27.6672463 0v-6.9764392h3.443152 3.443151l1.237622 3.5478473 1.237621 3.5478473.031589-3.5478473.031588-3.5478473h2.383333 2.383333v6.9764392 6.9764392h-3.434816-3.434816l-1.245957-3.6017435-1.245958-3.6017436-.031562 3.6017436-.031563 3.6017435h-2.383358-2.383359zm-59.228575-9.1272253c-1.3600455-.242959-2.7403024-.9532535-3.3140114-1.7054258-.4322924-.5667635-.7476465-1.4304359-.8488204-2.3246957l-.0832581-.7359034h2.8179042c2.7611602 0 2.8179055.0049252 2.8179055.2444329 0 .34479.3179563.9184238.5896713 1.0638414.4344115.2324891.958422.1433636 1.3275877-.2258029.7586777-.7586776.3973864-1.0220221-2.6394862-1.9239159-3.1375934-.9318054-3.7414966-1.2851877-4.2684038-2.4977059-.4799313-1.1044169-.4275997-2.8989705.1155871-3.9637039.5566686-1.0911616 1.8683381-1.948665 3.5140491-2.2973081 1.1259365-.2385286 3.8499271-.2333076 5.0260773.0096358 2.2344413.4615362 3.4266766 1.6589591 3.5823168 3.5979048l.0598328.7453878h-2.6399454-2.6399454v-.2773498c0-.4099964-.4729966-.7959485-.9754601-.7959485-.4064759 0-1.0518812.3683202-1.0518812.6002874 0 .2979703.6211952.5992296 1.9463585.9439194 2.949313.7671519 3.8908401 1.1561975 4.6951985 1.9400917.7716562.7520231 1.0362528 1.4752283 1.0376863 2.8362361.0007155.6231094-.0694293 1.3475857-.1557463 1.6099471-.4488749 1.3643649-1.5306964 2.3495705-3.1626358 2.8801865-.8620303.2802835-1.1791196.316604-3.0490521.3492453-1.147833.0200373-2.363521-.0129725-2.7015289-.0733539 0 0 .3380079.0603814 0 0zm-38.7993401-.3369155c0-.0564269-.6438965-3.075078-1.430881-6.7081142-.7869847-3.6330362-1.4309637-6.7273123-1.4310645-6.8761705l-.0001789-.27065 2.589638.0321393 2.5896379.0321393.4777511 3.6009744c.2627631 1.9805359.4914279 3.587297.5081442 3.5705809.0167163-.0167172.2465781-1.5029921.5108041-3.3028359.2642261-1.7998426.5112681-3.4200211.5489822-3.6003948l.0685712-.3279523h2.9596665 2.9596667l.1247686.7453461c.0686231.4099403.2926157 1.9259742.4977612 3.3689642.2051454 1.44299.409796 2.7196319.4547791 2.8369804.0449831.1173496.2945179-1.3986843.554522-3.3689643l.4727354-3.5823264h2.5972473c2.3938297 0 2.5972973.0163463 2.5978709.2086969.0003578.1147833-.6564949 3.254181-1.4596369 6.9764392l-1.4602581 6.7677419h-3.1171983-3.1171994l-.126815-.8646015c-.0697489-.4755307-.2991187-2.0988945-.5097118-3.6074745-.210593-1.5085804-.4166353-2.7821169-.4578738-2.8300814-.0412373-.0479633-.309804 1.5754004-.5968159 3.607475l-.5218396 3.6946824h-3.1415343c-1.7278484 0-3.1415389-.0461673-3.1415389-.1025942 0 0 0 .0564269 0 0zm3.2919448-6.0663855c-.0396276-.0396286-.0678131.0308072-.0626349.1565227.0057219.1389253.0339807.1671841.0720501.0720493.0344495-.0860869.0302127-.1889447-.0094152-.228572 0 0 .0396279.0396273 0 0zm17.3392342-.8074591v-6.9764392h5.3664917 5.3664917v1.9677137 1.9677136h-2.5639905-2.5639905v.5366491.5366492h2.3851075 2.3851074v1.9677136 1.9677137h-2.3851074-2.3851075v.5366491.5366492h2.6832459 2.6832458v1.9677132 1.9677136h-5.485747-5.4857471zm33.3915039 1.9677137v-5.0087256h-1.6695752-1.6695752v-1.9677136-1.9677137h6.2012794 6.2012793v1.9677137 1.9677136h-1.6695752-1.6695752v5.0087256 5.0087251h-2.8621289-2.862129zm12.4025587-1.9677137v-6.9764392h5.3664917 5.3664917v1.9677137 1.9677136h-2.5639905-2.5639905v.5366491.5366492h2.3851074 2.3851075v1.9677136 1.9677137h-2.3851075-2.3851074v.5366491.5366492h2.6832459 2.6832458v1.9677132 1.9677136h-5.4857471-5.485747zm14.6684106 0v-6.9764392h4.8239729c5.066786 0 5.652061.0476807 6.624543.5396783 1.114523.5638585 1.543799 1.3861064 1.547701 2.9645192.001443.5827044-.058636 1.2639125-.133503 1.5137966-.181358.6053188-.732093 1.2539071-1.318955 1.5533013l-.477962.243839.502846.2487882c.862449.4267065 1.070991.938114 1.37459 3.3709224.106409.8526754.296613 1.9735948.422675 2.4909318.126063.5173369.229204.9600725.229204.9838568s-1.28589.0432444-2.857532.0432444h-2.857532l-.120446-.4473007c-.066245-.2460155-.23074-1.1985677-.365542-2.1167828-.278171-1.8947563-.408481-2.1249526-1.282222-2.2650717l-.506835-.0812785v2.455216 2.4552177h-2.8025017-2.8025012zm7.1034239-1.7425308c.437979-.4382528.491922-.9510401.142748-1.3569783-.23746-.2760642-.409424-.3459133-.965058-.39199l-.676111-.0560691v1.1032386 1.1032386l.606895-.0583147c.427934-.0411192.690826-.1423003.891526-.3431251 0 0-.2007.2008248 0 0zm9.830839 1.7425308v-6.9764392h3.443152 3.443151l1.237622 3.5478473 1.237621 3.5478473.031589-3.5478473.031588-3.5478473h2.383333 2.383333v6.9764392 6.9764388h-3.430853-3.430853l-1.24992-3.6016823-1.249921-3.6016815-.031562 3.6016815-.031563 3.6016823h-2.383358-2.383359zm0 0" fill="#dfac16"/></g></svg>