<svg enable-background="new 0 0 400 120" height="120" viewBox="0 0 400 120" width="400" xmlns="http://www.w3.org/2000/svg"><g fill="#fff"><path d="m16.5 8.5c.3.1.4.5.2.8-.1.1-.1.2-.2.2l-11.4 7c-.5.3-.8.1-.8-.5v-14c0-.5.4-.8.8-.5z" height="16" width="16"/><path d="m24 1h2.2c.6 0 1 .4 1 1v14c0 .6-.4 1-1 1h-2.2c-.6 0-1-.4-1-1v-14c0-.5.4-1 1-1z" height="16" width="16"/><path d="m33.8 1h2.2c.6 0 1 .4 1 1v14c0 .6-.4 1-1 1h-2.2c-.6 0-1-.4-1-1v-14c0-.5.4-1 1-1z" height="16" width="16"/><path d="m81 1.4c0-.6.4-1 1-1h5.4c.6 0 .7.3.3.7l-6 6c-.4.4-.7.3-.7-.3z" height="16" width="16"/><path d="m81 17.2c0 .6.4 1 1 1h5.4c.6 0 .7-.3.3-.7l-6-6c-.4-.4-.7-.3-.7.3z" height="16" width="16"/><path d="m98.8 1.4c0-.6-.4-1-1-1h-5.4c-.6 0-.7.3-.3.7l6 6c.4.4.7.3.7-.3z" height="16" width="16"/><path d="m98.8 17.2c0 .6-.4 1-1 1h-5.4c-.6 0-.7-.3-.3-.7l6-6c.4-.4.7-.3.7.3z" height="16" width="16"/><path d="m112.7 5c0 .6.4 1 1 1h4.1c.6 0 .7-.3.3-.7l-4.7-4.7c-.4-.4-.7-.3-.7.3z" height="16" width="16"/><path d="m105.6 6c.6 0 1-.4 1-1v-4.1c0-.6-.3-.7-.7-.3l-4.7 4.7c-.4.4-.3.7.3.7z" height="16" width="16"/><path d="m106.6 13.1c0-.6-.4-1-1-1h-4.1c-.6 0-.7.3-.3.7l4.7 4.7c.4.4.7.3.7-.3z" height="16" width="16"/><path d="m113.7 12.1c-.6 0-1 .4-1 1v4.1c0 .5.3.7.7.3l4.7-4.7c.4-.4.3-.7-.3-.7z" height="16" width="16"/><path d="m67 5.8c-.5.4-1.2.6-1.8.6h-3.2c-.6 0-1 .4-1 1v5.7c0 .6.4 1 1 1h3.2 1c.3.2.5.4.8.6l3.5 2.6c.4.3.8.1.8-.4v-13.4c0-.5-.4-.7-.8-.4z" height="16" width="16"/></g><path d="m73.9 2.5s3.9-.8 3.9 7.7-3.9 7.8-3.9 7.8" fill="none" stroke="#fff" stroke-linecap="round" stroke-width="1.5"/><path d="m72.6 6.4s2.6-.4 2.6 3.8-2.6 3.9-2.6 3.9" fill="none" stroke="#fff" stroke-linecap="round" stroke-width="1.5"/><path d="m47 5.8c-.5.4-1.2.6-1.8.6h-3.2c-.6 0-1 .4-1 1v5.7c0 .6.4 1 1 1h3.2 1c.3.2.5.4.8.6l3.5 2.6c.4.3.8.1.8-.4v-13.4c0-.5-.4-.7-.8-.4z" fill="#fff" height="16" width="16"/><path d="m52.8 7 5.4 5.4" fill="none" stroke="#fff" stroke-linecap="round" stroke-width="2"/><path d="m52.8 12.4 5.4-5.4" fill="none" stroke="#fff" stroke-linecap="round" stroke-width="2"/><path d="m128.7 8.6c-6.2-4.2-6.5 7.8 0 3.9" fill="none" stroke="#fff"/><path d="m135.2 8.6c-6.2-4.2-6.5 7.8 0 3.9" fill="none" stroke="#fff"/><path d="m122.2 3.4h15.7v13.1h-15.7zm-1.4-1.4v15.7h18.3v-15.7z" fill="#fff" height="16" width="16"/><path d="m143.2 3h14c1.1 0 2 .9 2 2v10c0 1.1-.9 2-2 2h-14c-1.1 0-2-.9-2-2v-10c0-1.1.9-2 2-2z" fill="#fff" height="16" width="16"/><path d="m146.4 13.8c-.8 0-1.6-.4-2.1-1-1.1-1.4-1-3.4.1-4.8.5-.6 2-1.7 4.6.2l-.6.8c-1.4-1-2.6-1.1-3.3-.3-.8 1-.8 2.4-.1 3.5.7.9 1.9.8 3.4-.1l.5.9c-.7.5-1.6.7-2.5.8z" fill="#231f20"/><path d="m153.9 13.8c-.8 0-1.6-.4-2.1-1-1.1-1.4-1-3.4.1-4.8.5-.6 2-1.7 4.6.2l-.5.8c-1.4-1-2.6-1.1-3.3-.3-.8 1-.8 2.4-.1 3.5.7.9 1.9.8 3.4-.1l.5.9c-.8.5-1.7.7-2.6.8z" fill="#231f20"/><path d="m60.3 77c.6.2.8.8.6 1.4-.1.3-.3.5-.6.6l-30.3 17.5c-1 .6-1.7.1-1.7-1v-35c0-1.1.8-1.5 1.7-1z" fill="#fff" height="16" width="16"/><path d="m2.5 79c0-20.7 16.8-37.5 37.5-37.5s37.5 16.8 37.5 37.5-16.8 37.5-37.5 37.5-37.5-16.8-37.5-37.5z" fill="none" opacity=".75" stroke="#fff" stroke-width="5"/><path d="m140.3 77c.6.2.8.8.6 1.4-.1.3-.3.5-.6.6l-30.3 17.5c-1 .6-1.7.1-1.7-1v-35c0-1.1.8-1.5 1.7-1z" fill="#fff" height="16" width="16"/><path d="m82.5 79c0-20.7 16.8-37.5 37.5-37.5s37.5 16.8 37.5 37.5-16.8 37.5-37.5 37.5-37.5-16.8-37.5-37.5z" fill="none" stroke="#fff" stroke-width="5"/><g fill="#fff"><circle cx="201.9" cy="47.1" r="8.1"/><circle cx="233.9" cy="79" opacity=".4" r="5"/><circle cx="201.9" cy="110.9" opacity=".6" r="6"/><circle cx="170.1" cy="79" opacity=".8" r="7"/><circle cx="178.2" cy="56.3" opacity=".9" r="7.5"/><circle cx="226.3" cy="56.1" opacity=".3" r="4.5"/><circle cx="225.8" cy="102.8" opacity=".5" r="5.5"/><circle cx="178.2" cy="102.8" opacity=".7" r="6.5"/><path d="m178 9.4c0 .4-.4.7-.9.7-.1 0-.2 0-.2-.1l-4.9-1.8c-.5-.2-.6-.6-.1-.8l6.2-3.6c.5-.3.8-.1.7.5z" height="16" width="16"/><path d="m169.4 15.9c-1 0-2-.2-2.9-.7-2-1-3.2-3-3.2-5.2.1-3.4 2.9-6 6.3-6 2.5.1 4.8 1.7 5.6 4.1l.1-.1 2.1 1.1c-.6-4.4-4.7-7.5-9.1-6.9-3.9.6-6.9 3.9-7 7.9 0 2.9 1.7 5.6 4.3 7 1.2.6 2.5.9 3.8 1 2.6 0 5-1.2 6.6-3.3l-1.8-.9c-1.2 1.2-3 2-4.8 2z" height="16" width="16"/><path d="m183.4 3.2c.8 0 1.5.7 1.5 1.5s-.7 1.5-1.5 1.5-1.5-.7-1.5-1.5c0-.9.7-1.5 1.5-1.5z" height="16" width="16"/><path d="m188.5 3.2h8.5c.9 0 1.5.7 1.5 1.5s-.7 1.5-1.5 1.5h-8.5c-.9 0-1.5-.7-1.5-1.5-.1-.9.6-1.5 1.5-1.5z" height="16" width="16"/><path d="m183.4 8.2c.8 0 1.5.7 1.5 1.5s-.7 1.5-1.5 1.5-1.5-.7-1.5-1.5c0-.9.7-1.5 1.5-1.5z" height="16" width="16"/><path d="m188.5 8.2h8.5c.9 0 1.5.7 1.5 1.5s-.7 1.5-1.5 1.5h-8.5c-.9 0-1.5-.7-1.5-1.5-.1-.9.6-1.5 1.5-1.5z" height="16" width="16"/><path d="m183.4 13.2c.8 0 1.5.7 1.5 1.5s-.7 1.5-1.5 1.5-1.5-.7-1.5-1.5c0-.9.7-1.5 1.5-1.5z" height="16" width="16"/><path d="m188.5 13.2h8.5c.9 0 1.5.7 1.5 1.5s-.7 1.5-1.5 1.5h-8.5c-.9 0-1.5-.7-1.5-1.5-.1-.9.6-1.5 1.5-1.5z" height="16" width="16"/></g></svg>