<svg preserveAspectRatio="none" viewBox="0 0 110 4" xmlns="http://www.w3.org/2000/svg"><path d="m105.2 3.4c-3.8-.2-7.7-.3-11.5-.3-1.4 0-2.8-.1-4.2.1-1.7.2-3.4-.2-5-.2-6.9-.1-13.8-.1-20.6 0-4.3 0-8.5.2-12.8.1-1.1 0-2 .3-3.1.4-2.1.2-4.1-.3-6.2-.2-1.2 0-2.3.4-3.4.3-4.2-.2-8.3 0-12.4.1-6 0-11.9.1-17.9.3-1.4 0-2.8 0-4.1-.3-1.6-.3-2.9-1.2-3.9-2.3-.3-.4.1-.6.6-.7.8-.2 1.5.1 2.2.1 5.1-.1 10.2-.3 15.3-.3 5.3-.1 10.6 0 15.9-.1 3 0 6-.1 9-.1 8.3 0 16.5-.4 24.8-.2 3.7.1 7.5.1 11.2.1 2.5 0 5-.2 7.5.3.6.1 1.4-.4 2.1-.4 6.3 0 12.7-.3 19 .8.3.1.8.1 1.2.1s.6.2.7.5.2.5-.2.8c-1 1.1-2.5 1.2-4.2 1.1z" fill="#00bed7"/></svg>